<svg aria-hidden="true" style="width:0;height:0;position:absolute;overflow:hidden" xmlns="http://www.w3.org/2000/svg"><defs><symbol id="icon-mail" viewBox="0 0 32 32"><path d="m3.429 11.57 12.176 6.333a.864.864 0 0 0 .79 0l12.176-6.331v11a3.713 3.713 0 0 1-3.504 3.708l-.21.006H7.143a3.715 3.715 0 0 1-3.708-3.504l-.006-.21V11.571zm3.714-5.856h17.714a3.717 3.717 0 0 1 3.708 3.504l.006.21v.21L16 16.175 3.429 9.638v-.21A3.715 3.715 0 0 1 6.933 5.72l.21-.006z"/></symbol><symbol id="icon-tel" viewBox="0 0 32 32"><path d="M25.329 26.667c-11.375.016-20.008-8.72-19.996-19.996 0-.737.597-1.337 1.333-1.337h3.52c.66 0 1.221.485 1.319 1.139a16.558 16.558 0 0 0 1.353 4.529l.137.296a.945.945 0 0 1-.307 1.163c-1.091.779-1.507 2.345-.657 3.567a15.777 15.777 0 0 0 3.941 3.943c1.223.848 2.789.432 3.567-.657a.944.944 0 0 1 1.164-.308l.295.136a16.503 16.503 0 0 0 4.529 1.355 1.336 1.336 0 0 1 1.139 1.32v3.519a1.339 1.339 0 0 1-.824 1.233 1.334 1.334 0 0 1-.511.101h-.003z"/></symbol><symbol id="icon-map" viewBox="0 0 32 32"><path d="M16 2A11.018 11.018 0 0 0 5 13a10.892 10.892 0 0 0 2.216 6.6s.3.395.349.452L16 30l8.439-9.953c.044-.053.345-.447.345-.447l.001-.003A10.89 10.89 0 0 0 27 13 11.018 11.018 0 0 0 16 2zm0 15a4.002 4.002 0 0 1-3.923-4.78 4.006 4.006 0 0 1 3.143-3.143 3.996 3.996 0 0 1 3.607 6.75A4.002 4.002 0 0 1 16 17z"/></symbol><symbol id="icon-wk" viewBox="0 0 32 32"><path d="M31.95 7.816c.272.735-.564 2.451-2.507 5.147a68.85 68.85 0 0 0-1.049 1.47c-.894 1.144-1.399 1.899-1.516 2.267-.194.49-.117.96.233 1.409.194.245.641.735 1.341 1.471h.058v.061c1.594 1.511 2.662 2.798 3.207 3.86l.117.245.117.46v.582l-.408.46-.991.214-4.256.123c-.272.041-.593 0-.962-.123s-.651-.245-.845-.368l-.35-.245c-.35-.245-.738-.613-1.166-1.103s-.806-.94-1.137-1.348-.671-.745-1.02-1.011c-.35-.266-.661-.357-.933-.276-.039 0-.088.02-.146.061s-.156.133-.292.276c-.136.143-.253.317-.35.521s-.185.5-.262.888a7.087 7.087 0 0 0-.117 1.379c0 .164-.02.317-.058.46s-.078.255-.116.337l-.058.061c-.233.245-.544.368-.933.368h-1.866c-.816.082-1.642 0-2.478-.245s-1.564-.562-2.186-.95-1.185-.776-1.691-1.164c-.505-.388-.894-.725-1.166-1.011l-.408-.429c-.117-.082-.272-.245-.466-.49s-.593-.776-1.195-1.593c-.602-.817-1.195-1.695-1.778-2.635s-1.263-2.175-2.041-3.707A61.532 61.532 0 0 1 .119 8.49C.041 8.286.002 8.122.002 8s.019-.225.058-.306l.058-.061c.155-.245.466-.368.933-.368h4.606a.75.75 0 0 1 .35.092l.292.153.058.061c.194.123.33.306.408.551.233.572.496 1.174.787 1.807s.515 1.113.67 1.44l.233.49c.35.694.67 1.297.962 1.807s.554.909.787 1.195c.233.286.466.511.7.674s.428.245.583.245c.155 0 .311-.02.466-.061l.058-.092.204-.398.233-.797.146-1.409v-2.206c-.039-.449-.097-.868-.175-1.256s-.155-.664-.233-.827l-.058-.184c-.272-.408-.758-.674-1.458-.797-.117 0-.078-.143.117-.429.194-.204.408-.368.641-.49.583-.327 1.905-.47 3.965-.429.894 0 1.652.082 2.274.245.194.041.369.112.525.214s.272.245.35.429c.078.184.136.368.175.551s.058.449.058.796v.95c-.039.327-.058.735-.058 1.225v1.47c0 .123-.01.368-.029.735s-.029.654-.029.858.02.439.058.705c.039.265.107.49.204.674s.224.317.379.398c.078.041.165.072.262.092s.243-.041.437-.184.408-.347.641-.613.525-.664.875-1.195.719-1.144 1.108-1.838a33.36 33.36 0 0 0 1.807-3.983c.039-.082.088-.174.146-.276s.126-.174.204-.214h.058l.058-.061.233-.061h.35l4.781-.061c.428-.041.787-.02 1.079.061s.457.184.496.306l.117.184z"/></symbol><symbol id="icon-yt" viewBox="0 0 32 32"><path d="M31.333 8.676a3.71 3.71 0 0 0-1.021-1.693 4.058 4.058 0 0 0-1.784-.989c-2.504-.66-12.536-.66-12.536-.66-4.182-.048-8.363.162-12.52.627a4.223 4.223 0 0 0-1.784 1.013A3.86 3.86 0 0 0 .651 8.675 38.87 38.87 0 0 0 0 16a38.651 38.651 0 0 0 .651 7.325c.183.639.539 1.221 1.033 1.692s1.111.811 1.788.991c2.537.659 12.52.659 12.52.659 4.187.048 8.374-.162 12.536-.627a4.068 4.068 0 0 0 1.784-.989 3.712 3.712 0 0 0 1.02-1.693c.46-2.415.684-4.868.668-7.327a35.398 35.398 0 0 0-.667-7.356v.001zm-18.53 11.889v-9.129l8.347 4.565-8.347 4.564z"/></symbol><symbol id="icon-tg" viewBox="0 0 32 32"><path d="m27.553 4.956-23.64 9.116c-1.613.648-1.604 1.548-.296 1.949l6.069 1.893 14.043-8.86c.664-.404 1.271-.187.772.256L13.124 19.579l-.419 6.256c.613 0 .884-.281 1.228-.613l2.948-2.867 6.132 4.529c1.131.623 1.943.303 2.224-1.047l4.025-18.971c.412-1.652-.631-2.4-1.709-1.912z"/></symbol><symbol id="icon-plenka" viewBox="0 0 39 32"><path fill="#fff" style="fill:var(--color1,#fff)" d="M29.077 1.526c-1.822 1.146-2.361 1.447-2.789 1.56l-.531.14-2.858-.348c-3.205-.39-3.67-.395-5.014-.052-.424.108-1.048.334-1.386.503s-2.212 1.339-4.165 2.602C8.688 8.288 8.496 8.437 8.355 9.018c-.029.122-.184.306-.361.428a2.54 2.54 0 0 0-.549.579c-.431.654-.474.948-.474 3.212v2.056H-.001v1.274h10.188c5.603 0 10.174.027 10.157.06-.578 1.132-.919 2.062-1.145 3.125-.199.935-.196 2.955.006 3.898.902 4.22 4.138 7.377 8.282 8.078 5.6.947 10.86-2.937 11.698-8.638.319-2.171-.065-4.21-1.216-6.463-.017-.033.275-.06.65-.06h.68v-1.274h-2.213l-.673-.701c-2.026-2.112-4.848-3.245-7.691-3.088-.523.029-1.067.073-1.208.099-.243.044-.258.033-.258-.189 0-.208.039-.247.337-.335.587-.175 1.505-.703 2.119-1.221.327-.275 1.646-1.159 2.932-1.963s2.381-1.502 2.434-1.551c.076-.069.026-.207-.223-.617l-.32-.528-.926.579-2.471 1.545c-.85.531-1.738 1.134-1.973 1.34-.703.614-1.4 1.029-2.131 1.269-.632.208-.782.227-1.799.22-.93-.006-1.308-.049-2.337-.267-1.04-.22-1.471-.269-2.813-.317-.872-.032-1.679-.097-1.794-.146-.399-.169-1.019-.831-1.019-1.09 0-.024.963-.044 2.139-.044h2.139V7.014h-5.235l-2.779 1.549c-2.927 1.632-3.287 1.782-3.707 1.545-.281-.159-.389-.5-.24-.76.11-.193 6.547-4.42 7.366-4.837.764-.389 1.94-.679 2.768-.684.243-.001 1.679.15 3.191.335 3.809.467 3.511.535 6.884-1.569 1.107-.691 2.057-1.296 2.11-1.345.076-.07.031-.199-.207-.588-.168-.274-.319-.511-.336-.526s-1.047.612-2.289 1.393zM7.329 1.375c-.213.121-.248.182-.441.761-.199.597-.521.95-.929 1.018-.495.082-.712.2-.81.438-.192.467.086.812.736.914.464.073.78.41 1.003 1.071.202.6.381.799.719.799.335 0 .531-.208.712-.752.093-.282.245-.609.337-.726.187-.239.587-.433.894-.433.284 0 .593-.332.593-.637 0-.327-.308-.637-.634-.637-.553 0-.926-.363-1.19-1.159-.227-.685-.556-.904-.989-.657zm.433 2.33c.076.091.072.15-.018.279-.113.162-.114.162-.255.005-.116-.129-.124-.18-.042-.279.125-.151.194-.152.315-.005zm-4.888 4.04c-.102.049-.231.24-.308.453-.374 1.041-.546 1.235-1.199 1.358-.381.071-.734.365-.734.61 0 .251.243.587.457.631.873.18 1.088.362 1.359 1.152.198.575.395.796.71.796.344 0 .539-.204.721-.752.094-.282.245-.609.337-.726.187-.239.587-.433.894-.433.284 0 .593-.332.593-.637 0-.327-.308-.637-.634-.637-.553 0-.926-.363-1.19-1.159-.229-.691-.53-.887-1.006-.656zm13.192 1.083c.02.061-.063.094-.233.092-.25-.002-.256-.009-.109-.12.17-.129.293-.119.342.028zM3.325 10.074c.076.091.072.15-.018.279-.113.162-.114.162-.256.005-.116-.129-.124-.18-.042-.279.125-.151.194-.152.315-.005zm14.319.417.592.294 1.677.058c1.433.05 1.844.094 2.826.305.774.166 1.491.263 2.199.297l1.05.05v.258c0 .215-.036.267-.218.312-.446.111-1.825.839-2.484 1.311-.375.268-.994.809-1.377 1.202l-.696.714H8.239v-2.034c0-1.721.02-2.073.129-2.289.176-.347.176-.347.312-.152.211.303.79.585 1.293.631.634.058 1.329-.167 2.385-.771l.832-.475 3.86-.006.592.294zm2.005 1.617v.637h1.268v-1.274h-1.268v.637zm10.896.754c3.697.603 6.54 3.379 7.341 7.168.13.617.13 2.648 0 3.264-.776 3.673-3.45 6.36-7.105 7.14-.614.131-2.635.131-3.248 0-2.754-.588-4.963-2.231-6.202-4.613-1.372-2.638-1.392-5.548-.057-8.219 1.699-3.4 5.518-5.352 9.272-4.74zm-19.136 1.157v.637h1.268v-1.274h-1.268v.637z"/><path fill="#db3138" style="fill:var(--color2,#db3138)" d="M23.054 17.403c.338-.687.986-1.219 1.705-1.401.131-.033 1.325-.054 2.654-.046 2.335.014 2.429.02 2.776.194.565.283.898.604 1.192 1.148l.272.504.026 1.756.026 1.756.283-.261c.495-.456.93-.62 1.645-.621.737-.001 1.173.161 1.691.632.698.633.903 1.479.729 2.995-.222 1.929-.536 2.592-1.462 3.083l-.403.214H24.68l-.501-.273c-.541-.295-.861-.63-1.142-1.197-.178-.36-.179-.374-.179-4.222v-3.861l.196-.398zm11.688 6.927c.236-1.576.103-2.189-.544-2.503-.363-.176-.685-.201-.999-.075-.309.124-.476.313-.732.827-.415.835-.602.976-2.054 1.556-.451.18-.901.402-.998.493-.395.37-.277 1.118.217 1.374.208.108.542.123 2.296.103l2.052-.024.241-.232c.294-.283.368-.499.521-1.52zm-4.902-6.922c.12.09.292.263.382.384.155.209.165.34.186 2.592l.023 2.373-.657.264c-.88.353-1.195.561-1.479.977-.388.567-.507 1.406-.282 1.989.053.137-.027.143-1.534.119-1.741-.027-1.795-.041-2.19-.573-.158-.213-.164-.329-.187-3.658-.013-1.891-.003-3.553.023-3.694.058-.319.39-.725.71-.867.188-.084.745-.103 2.514-.089 2.156.018 2.283.027 2.491.183z"/></symbol><symbol id="icon-detail" viewBox="0 0 32 32"><path fill="#fff" style="fill:var(--color1,#fff)" d="M20.454.329c-1.891.27-3.663 1.492-4.634 3.196-.145.254-.548 1.226-.897 2.16l-.634 1.698h-.543V7.03c0-.29-.028-.381-.156-.509-.148-.148-.194-.156-.906-.155-.829.001-2.228.137-2.903.283-.774.167-1.253.559-1.504 1.229-.337.901.071 1.92.941 2.347.357.175.391.179 1.737.211l1.373.032-.759.922c-.855 1.039-1.271 1.627-1.568 2.216-.163.323-.225.393-.311.355a18.485 18.485 0 0 0-.648-.241c-.494-.177-.611-.193-1.367-.196-.941-.003-1.428.112-2.225.526-.618.321-1.514 1.217-1.826 1.824-.619 1.207-.714 2.414-.291 3.701l.134.407-.828.84c-.456.462-.877.936-.937 1.054-.167.329-.196.827-.069 1.209l.109.327-.252.4A9.96 9.96 0 0 0 .198 26.96c-.119.541-.14.879-.166 2.732l-.03 2.115h1.017l.032-2.083c.034-2.218.057-2.418.404-3.483.186-.57.631-1.499.917-1.915.171-.249.204-.269.35-.213.24.091.6.075.953-.045.256-.087.474-.264 1.188-.966l.875-.86.397.136c.5.172 1.047.269 1.516.269.347 0 1.172-.131 1.409-.224.103-.04.111.023.112.806.001.944.099 1.532.346 2.071l.161.352v2.418c0 1.712.023 2.494.077 2.68.103.349.63.876.979.98.184.054.932.077 2.516.077 2.618 0 2.674-.009 3.123-.508.376-.418.426-.634.426-1.837 0-.981.006-1.026.126-1.026.069 0 .591.042 1.16.094 1.968.178 3.726.224 8.585.224h4.88v-1.006l-5.706-.029c-6.567-.034-7.379-.077-10.952-.59-2.503-.359-3.049-.539-3.756-1.236-.451-.444-.691-.866-.852-1.492-.113-.44-.142-2.579-.035-2.579.126 0 .95-.843 1.202-1.23.445-.683.77-1.686.77-2.377 0-.2.015-.22.143-.189.27.066 2.75.357 3.591.421.463.035 1.44.084 2.173.107l1.331.043.203-.203c.194-.194.201-.218.159-.554-.155-1.239-.761-2.46-1.714-3.452-.568-.592-1.072-.953-1.829-1.312-.937-.444-1.455-.548-2.963-.596l-1.29-.041 2.496-3.052.699-.112c1.844-.295 4.657-.596 7.016-.752.595-.039 2.933-.086 5.198-.105l4.117-.033V7.367l-4.18.034c-4.155.033-5.565.092-8.027.333a80.344 80.344 0 0 0-3.652.446c-.313.05-.582.076-.599.059-.039-.039 1.14-3.208 1.428-3.837.565-1.237 1.646-2.249 2.95-2.763.909-.358 1.007-.364 6.778-.364h5.302V.257l-5.357.008c-2.946.004-5.528.032-5.738.062zm-7.725 7.406c0 .29.028.381.156.509.134.134.215.156.572.156.309 0 .416.022.416.087 0 .048-.15.275-.334.505l-.334.418-1.685.004c-1.573.003-1.699-.005-1.892-.123-.572-.349-.602-1.137-.058-1.494.274-.18 1.647-.387 2.698-.406l.461-.009v.353zm2.277 5.937c.916.272 1.846.84 2.448 1.494.542.589 1.082 1.56 1.217 2.188l.045.207-.275-.001c-1.017-.003-3.826-.231-5.012-.406l-.54-.08.286-.088c.375-.116.898-.632 1.004-.991.176-.596.052-1.072-.397-1.521-.645-.645-1.457-.644-2.109.004-.2.199-.344.405-.372.534l-.046.21-.617-.608.586-1.135 1.659.028c1.466.025 1.714.044 2.124.166zm7.419-.124a2.126 2.126 0 0 0-1.364 1.118c-.185.384-.252 1.382-.132 1.962.245 1.178 1.246 2.173 2.411 2.394.21.04 1.866.065 4.276.065h3.933v-1.018h-1.017v-1.527h1.017v-1.018h-1.017v-1.018h1.017v-1.018l-4.467.007c-2.457.004-4.552.027-4.657.053zM8.728 14.693c.75.233 1.567.871 1.951 1.523.627 1.065.678 2.302.141 3.419s-1.637 1.867-2.89 1.973c-.444.038-1.272-.065-1.334-.165-.015-.025.149-.219.366-.43l.394-.385.467-.036c.925-.072 1.675-.585 2.093-1.432.224-.454.237-.515.237-1.088 0-.55-.019-.648-.201-1.032-.28-.591-.64-.96-1.219-1.246-.454-.224-.514-.238-1.091-.238s-.637.013-1.091.238c-.847.419-1.36 1.169-1.431 2.094l-.036.467-.385.394c-.212.217-.406.381-.432.366s-.081-.234-.124-.485c-.305-1.811.921-3.616 2.736-4.028.526-.119 1.294-.081 1.848.091zm14.683.323v.509h-.763c-.829 0-.832-.001-.695-.362.163-.43.53-.65 1.093-.654l.366-.002v.509zm2.034 0v.509h-1.017v-1.018h1.017v.509zm2.035 0v.509h-1.017v-1.018h1.017v.509zm2.035 0v.509h-1.017v-1.018h1.017v.509zm-16.433.156c.315.316.092.862-.353.862-.124 0-.254-.058-.353-.156s-.156-.229-.156-.353.058-.254.156-.353c.098-.098.229-.156.353-.156s.254.058.353.156zm2.283-.067c-.642.279-.793 1.133-.29 1.635.714.715 1.885.075 1.697-.928-.113-.6-.828-.96-1.407-.707zM8.159 16.64c.153.054.399.216.546.361.589.577.617 1.452.065 2.042-.148.159-.23.215-.203.138a1.767 1.767 0 0 0-.004-1.053c-.271-.817-1.184-1.258-2.034-.982-.079.026-.026-.053.14-.208.416-.388.938-.493 1.489-.299zm15.252.632v.73l-.159-.061c-.319-.121-.513-.247-.753-.487s-.365-.434-.486-.753l-.061-.159h1.459v.73zm2.034.033v.763h-1.017v-1.527h1.017v.763zm2.035 0v.763h-1.017v-1.527h1.017v.763zm2.035 0v.763h-1.017v-1.527h1.017v.763zm-22.058.95c.131.131.186.249.186.397 0 .192-.191.402-2.147 2.358s-2.166 2.148-2.357 2.148c-.289 0-.582-.293-.582-.582 0-.192.191-.402 2.147-2.358S6.87 18.07 7.061 18.07c.148 0 .266.055.396.186zm8.534 1.436c-.077.054-.196.275-.273.505-.209.627-.511.926-.938.926a.626.626 0 0 0-.305.088c-.107.075-.307.075-1.334.002-1.634-.116-1.6-.117-1.783.066l-.156.156v1.486c0 1.727.042 1.936.482 2.376.192.192.37.299.61.366.228.064 1.625.171 4.268.327 3.624.213 3.941.224 4.084.13a.532.532 0 0 0 .196-.264c.061-.241-1.012-3.967-1.182-4.108-.088-.072-.318-.12-.734-.151-.578-.043-.611-.054-.697-.221-.099-.191-.212-.254-.453-.254-.401 0-.717-.315-.911-.907-.149-.455-.302-.62-.575-.62a.62.62 0 0 0-.299.095zm.428 1.848c.067.081.063.117-.024.204-.099.099-.113.099-.212 0-.087-.087-.092-.123-.024-.204.045-.054.103-.099.13-.099s.085.044.13.099zm5.104.257c-.159.159-.163.184-.124.697.085 1.112.519 2.034 1.344 2.859.578.578 1.109.912 1.844 1.161l.509.172 6.454.042v-1.025h-2.978c-2.769 0-3.013-.009-3.475-.127a3.531 3.531 0 0 1-1.648-.931c-.416-.416-.634-.762-.843-1.338-.268-.738-.811-.657 4.398-.657h4.546v-1.018h-9.861l-.165.165zm-7.459.501c1.496.106 1.423.072 1.653.766.145.437.303.603.572.603.266 0 .427-.167.568-.588.205-.612.125-.574 1.102-.522.473.025.895.067.937.093.078.049.783 2.419.734 2.468-.024.025-3.078-.142-5.661-.309-.49-.032-1-.058-1.133-.059-.183-.001-.289-.047-.429-.187l-.186-.186v-2.172l.27.001c.149 0 .857.042 1.574.093zM11.6 27.451c.514.242 1.17.387 2.877.639.629.093 1.18.179 1.224.192.06.018.079.296.079 1.11 0 1.069-.003 1.089-.156 1.242l-.156.156h-4.462l-.312-.312v-3.583l.222.169c.122.093.43.267.684.387z"/><path fill="#db3138" style="fill:var(--color2,#db3138)" d="M3.221 8.048c-.086.086-.156.209-.156.273 0 .196-.189.859-.324 1.141a2.86 2.86 0 0 1-1.614 1.42c-.439.146-.605.303-.605.573 0 .262.166.429.533.536 1.023.298 1.803 1.26 1.987 2.451.119.77.945.77 1.064 0 .184-1.191.964-2.154 1.987-2.451.367-.107.533-.274.533-.536 0-.269-.166-.427-.605-.573a2.86 2.86 0 0 1-1.614-1.42c-.136-.282-.324-.945-.324-1.141 0-.187-.287-.429-.509-.429a.516.516 0 0 0-.353.156zm.564 2.355c.099.157.368.457.597.668l.417.382-.417.382c-.229.21-.498.511-.597.668s-.195.285-.212.285c-.018 0-.113-.128-.212-.285s-.368-.458-.597-.668l-.417-.382.417-.382c.229-.21.498-.511.597-.668s.195-.285.212-.285c.017 0 .113.128.212.285z"/></symbol><symbol id="icon-oil" viewBox="0 0 49 32"><path fill="#fff" style="fill:var(--color1,#fff)" d="M10.437.34c-.133.133-.241.305-.241.383 0 .116-.295.149-1.645.182-1.848.046-2.267.153-3.159.808-.98.719-1.071.932-3.352 7.781C.077 15.388-.039 15.779.009 16.306c.097 1.073.705 1.961 1.634 2.391.417.193.644.211 3.037.239 2.744.032 2.965.001 3.099-.445.029-.096.342-2.355.697-5.019s.703-4.986.775-5.158c.072-.172.303-.465.514-.65l.383-.337.067 1.811c.114 3.075.44 7.009.726 8.767.061.373.064.375.444.319 1.281-.188 1.185-.151 1.127-.434-.216-1.057-.585-5.374-.703-8.24l-.066-1.596h2.449l.112.373c.161.539.727 1.147 1.35 1.452.607.297.828.549.828.942 0 .365-.346.708-.926.918-.568.206-1.212.814-1.455 1.374-.198.457-2.997 12.987-3.086 13.82-.222 2.061 1.323 4.153 3.385 4.585.733.153 16.013.152 16.736-.002 2.078-.441 3.608-2.513 3.385-4.583-.123-1.137-2.912-13.411-3.168-13.94a2.485 2.485 0 0 0-1.413-1.268c-.783-.282-1.098-.866-.742-1.375.079-.113.387-.324.685-.47.891-.436 1.529-1.386 1.529-2.277 0-.239.052-.336.207-.385.114-.036 1.045-.57 2.068-1.185l1.861-1.119h12.667l.241-.241c.239-.239.241-.256.241-2.116S48.695.58 48.456.341L48.215.1H31.108l-.241.241c-.133.133-.241.309-.241.393 0 .136-.836.152-7.857.152S14.912.87 14.912.734c0-.083-.109-.26-.241-.393C14.432.102 14.415.1 12.555.1s-1.877.002-2.116.241zm2.901 3.687v2.357h-1.571V1.67h1.571v2.357zM42.41 2.456v.786h-7.288l-2.926 1.761V1.671H42.41v.786zm4.714 0v.786h-3.143V1.671h3.143v.786zM10.196 4.059v1.602l-.565.234c-.676.279-1.461 1.027-1.767 1.681-.183.393-.263.464-.585.525-1.008.189-2.298 1.157-2.82 2.116-.187.344-.541 1.558-1.092 3.748-.448 1.782-.841 3.265-.872 3.296s-.168.007-.303-.055c-.3-.137-.638-.666-.638-1 0-.326 3.974-12.238 4.215-12.634.234-.383.776-.803 1.26-.976.239-.086.858-.133 1.768-.136l1.4-.004v1.602zm5.5-.817v.786h1.571V2.457h1.571v1.571h1.571V2.457h1.571v1.571h1.571V2.457h1.571v1.571h1.571V2.457h1.571v1.571h1.571V2.457h.786V5.6H14.907V2.457h.786v.786zm14.142 4.21c0 .397-.309.743-.985 1.103-1.142.608-1.634 1.78-1.229 2.926.241.682.611 1.069 1.377 1.437.808.389 1.006.571 1.093 1.011l.063.313H15.376l.063-.313c.088-.44.286-.622 1.093-1.011.766-.368 1.136-.755 1.377-1.437.405-1.147-.087-2.318-1.229-2.926-.676-.36-.985-.706-.985-1.103v-.281h14.143v.281zM7.346 9.896c0 .095-.221 1.807-.49 3.806s-.49 3.645-.49 3.659c0 .013-.505.025-1.12.025H4.127l.762-3.026c.419-1.664.819-3.134.89-3.266.253-.475.542-.797.97-1.08.505-.335.599-.353.598-.117zm23.214 6.138c.03.122.591 2.63 1.247 5.574 1.292 5.803 1.309 5.93.878 6.789-.293.584-.641.939-1.225 1.249l-.491.261H14.567l-.404-.216c-.633-.339-1.009-.701-1.279-1.234-.468-.925-.461-.985.845-6.849.656-2.944 1.217-5.452 1.247-5.574l.055-.221h15.475l.055.221z"/><path fill="#db3138" style="fill:var(--color2,#db3138)" d="M25.072 18.116c.272-.272.649-.544.838-.604.914-.288 1.718-.086 2.41.605.509.509.733 1.006.733 1.624 0 1.552-1.733 2.785-3.109 2.21-.194-.081-.367-.147-.385-.147s.035.188.117.417c.213.594.279 1.693.141 2.358a4.976 4.976 0 0 1-1.375 2.466c-1.873 1.787-4.709 1.761-6.527-.059-2.021-2.024-1.834-5.234.408-6.999 1.634-1.286 4.054-1.326 5.671-.093l.345.263v-.369c0-.665.213-1.151.733-1.673zm-1.028 4.228c-.311-.632-.902-1.22-1.523-1.514-.641-.304-1.688-.37-2.308-.145-2.685.976-2.897 4.579-.344 5.834.407.2.634.241 1.326.239.707-.003.911-.043 1.336-.263.74-.383 1.048-.681 1.419-1.371.304-.564.333-.693.334-1.454.001-.689-.041-.92-.241-1.326zm3.196-3.147c.152.152.241.353.241.545s-.089.393-.241.545c-.152.152-.353.241-.545.241s-.393-.089-.545-.241c-.152-.152-.241-.353-.241-.545s.089-.393.241-.545c.152-.152.353-.241.545-.241s.393.089.545.241z"/></symbol><symbol id="icon-list" viewBox="0 0 26 32"><path fill="#fff" style="fill:var(--color1,#fff)" d="M1.04.082c-.317.1-.857.659-.954.988-.114.386-.114 29.472 0 29.858.105.354.639.889.994.994.203.06 2.553.078 10.032.078h9.767l4.938-4.938V14.198c0-9.751-.019-12.926-.077-13.12-.042-.141-.202-.396-.356-.566-.505-.562.618-.516-12.5-.509C4.61.008 1.2.03 1.04.081zm23.585 1.106.158.158v24.976h-1.654c-1.11 0-1.741.026-1.919.078-.354.105-.889.639-.994.994-.053.178-.078.81-.078 1.92v1.654H1.356l-.317-.317V1.347l.317-.317h23.11l.158.158zm-15.036.964c-.786.201-.954.318-2.839 1.974-.816.717-1.571 1.359-1.678 1.426s-.295.123-.419.123c-.285.001-.813.246-1.058.49a2.198 2.198 0 0 0-.343.525c-.153.33-.156.371-.136 1.742.02 1.393.022 1.406.2 1.745.238.452.617.81 1.049.988.229.095.352.184.352.255 0 .06.102.312.226.561.949 1.896 3.63 1.899 4.578.004.126-.251.228-.496.228-.545 0-.073.453-.088 2.645-.088s2.645.015 2.645.088c0 .048.102.292.226.541.949 1.896 3.63 1.899 4.578.004.126-.251.228-.496.228-.545 0-.069.144-.088.654-.088.36 0 .773-.035.919-.078.354-.105.889-.639.994-.994.052-.175.078-.773.078-1.751 0-1.32-.013-1.501-.113-1.623-.085-.103-.563-.266-1.912-.65-.99-.282-1.805-.521-1.812-.531l-.975-1.372c-.529-.745-1.074-1.466-1.21-1.603s-.441-.341-.677-.453l-.429-.203-2.839-.012c-2.128-.009-2.92.008-3.162.07zm2.29 2.201v1.258H9.252c-2.232 0-2.613-.013-2.532-.089.551-.517 2.383-2.07 2.539-2.151.42-.219.722-.268 1.669-.272l.952-.004v1.258zm3.71-1.105c.396.187.433.228 1.288 1.427l.689.968-1.86.02c-1.023.011-2.07.001-2.328-.022L12.91 5.6V3.095l1.178.001c1.102.001 1.198.01 1.5.153zm3.879 3.729.911.261-.104.202c-.162.314-.137.921.05 1.223.215.349.566.56 1 .605l.362.037v.349c0 .284-.029.378-.158.507-.147.147-.204.158-.807.158-.505 0-.648-.02-.648-.088 0-.048-.102-.292-.226-.541-.275-.55-.662-.923-1.246-1.199-.39-.185-.49-.204-1.044-.204s-.654.02-1.044.204c-.583.276-.971.649-1.246 1.199-.125.249-.226.492-.226.541 0 .073-.453.088-2.645.088s-2.645-.015-2.645-.088c0-.048-.102-.292-.226-.541-.275-.55-.662-.923-1.246-1.199-.39-.185-.49-.204-1.044-.204s-.654.02-1.044.204c-.237.112-.56.323-.717.468-.283.261-.691.927-.691 1.128 0 .138-.077.131-.273-.023-.244-.192-.372-.521-.372-.958v-.389l.344-.158a2.094 2.094 0 0 0 1.181-1.62l.043-.316 12.853.093.911.261zm-14.84-.065c-.043.216-.327.635-.43.635-.079 0-.079-.268 0-.476.049-.129.319-.346.447-.36.013-.001.006.089-.017.202zm3.122.828v.516h1.549V7.224H7.75v.516zm6.194 0v.516h1.549V7.224h-1.549v.516zm7.742.258c0 .24-.013.258-.181.258-.202 0-.336-.103-.336-.258s.134-.258.336-.258c.168 0 .181.018.181.258zM7.71 9.367c.554.164 1.072.874 1.072 1.47 0 .8-.749 1.549-1.548 1.549s-1.549-.749-1.549-1.549c0-.406.148-.733.482-1.068.453-.454.94-.581 1.543-.403zm10.323 0c.555.164 1.072.874 1.072 1.47 0 .8-.749 1.549-1.548 1.549s-1.549-.749-1.549-1.549c0-.406.148-.733.482-1.068.453-.454.94-.581 1.543-.403zm-11.316 1.47v.516h1.032v-1.032H6.717v.516zm10.324 0v.516h1.032v-1.032h-1.032v.516zm.451 3.968-.675.678h-3.073l-.317.317v3.496l.317.317h3.496l.317-.317v-3.073l.677-.675c.373-.371.677-.706.677-.743 0-.085-.595-.676-.681-.676-.035 0-.367.305-.739.677zm-9.226 1.71v.516h4.129v-1.032H8.266v.516zm11.356 0v.516h4.129v-1.032h-4.129v.516zm-4.148.309c-.167.17-.301.337-.297.371s.164.206.357.38l.35.318.641-.631v1.318H14.46v-2.065h1.318l-.304.309zm-8.24 1.756v.516h5.162v-1.032H7.234v.516zm11.355 0v.516h5.162v-1.032h-5.162v.516zM6.137 19.967l-.675.677H2.389l-.317.317v3.496l.317.317h3.496l.317-.317v-3.073l.678-.675c.373-.371.678-.706.678-.743 0-.085-.595-.676-.681-.676-.035 0-.367.305-.739.677zm11.355 0-.675.677h-3.073l-.317.317v3.496l.317.317h3.496l.317-.317v-3.073l.677-.675c.373-.371.677-.706.677-.743 0-.085-.595-.676-.681-.676-.035 0-.367.305-.739.677zm-9.226 1.71v.516h4.129v-1.032H8.266v.516zm11.356 0v.516h4.129v-1.032h-4.129v.516zm-15.504.308c-.167.17-.301.337-.297.371s.164.206.357.38l.35.318.641-.631v1.318H3.104v-2.065h1.318l-.304.309zm11.356 0c-.167.17-.301.337-.297.371s.164.206.357.38l.35.318.641-.631v1.318H14.46v-2.065h1.318l-.304.309zm-8.24 1.756v.516h5.162v-1.032H7.234v.516zm11.355 0v.516h5.162v-1.032h-5.162v.516zM6.137 25.128l-.675.677H2.389l-.317.317v3.496l.317.317h3.496l.317-.317v-3.073l.678-.675c.373-.371.678-.706.678-.743 0-.085-.595-.676-.681-.676-.035 0-.367.305-.739.677zm2.129 1.71v.516h4.129v-1.032H8.266v.516zm-4.148.309c-.167.17-.301.337-.297.371s.164.206.357.38l.35.318.641-.631v1.318H3.104v-2.065h1.318l-.304.309zm19.891.224c0 .009-.639.655-1.419 1.435l-1.419 1.418v-1.277c0-1.714-.119-1.593 1.578-1.593.694 0 1.261.008 1.261.017zM7.234 28.903v.516h5.162v-1.032H7.234v.516z"/><path fill="#db3138" style="fill:var(--color2,#db3138)" d="m6.137 14.805-.675.678H2.389l-.317.317v3.496l.317.317h3.496l.317-.317v-3.073l.678-.675c.373-.371.677-.706.677-.743 0-.085-.595-.676-.681-.676-.035 0-.367.305-.739.678zm-2.019 2.018c-.167.17-.301.337-.297.371s.164.206.357.38l.35.318.641-.631v1.318H3.104v-2.065h1.318l-.304.309z"/><path fill="#db3138" style="fill:var(--color2,#db3138)" d="m6.137 19.969-.675.677H2.389l-.317.317v3.496l.317.317h3.496l.317-.317v-3.073l.678-.675c.373-.371.677-.706.677-.743 0-.085-.595-.676-.681-.676-.035 0-.367.305-.739.677zm-2.019 2.019c-.167.17-.301.337-.297.371s.164.206.357.38l.35.318.641-.631v1.318H3.104v-2.065h1.318l-.304.309z"/><path fill="#db3138" style="fill:var(--color2,#db3138)" d="m6.137 25.131-.675.677H2.389l-.317.317v3.496l.317.317h3.496l.317-.317v-3.073l.678-.675c.373-.371.678-.706.678-.743 0-.085-.595-.676-.681-.676-.035 0-.367.305-.739.677zM4.118 27.15c-.167.17-.301.337-.297.371s.164.206.357.38l.35.318.641-.631v1.318H3.104v-2.065h1.318l-.304.309zM17.479 19.969l-.675.677h-3.073l-.317.317v3.496l.317.317h3.496l.317-.317v-3.073l.677-.675c.373-.371.677-.706.677-.743 0-.085-.595-.676-.681-.676-.035 0-.367.305-.739.677zm-2.018 2.019c-.167.17-.301.337-.297.371s.164.206.357.38l.35.318.641-.631v1.318h-2.065v-2.065h1.318l-.304.309z"/><path fill="#db3138" style="fill:var(--color2,#db3138)" d="m17.479 14.808-.675.678h-3.073l-.317.317v3.496l.317.317h3.496l.317-.317v-3.073l.677-.675c.373-.371.677-.706.677-.743 0-.085-.595-.676-.681-.676-.035 0-.367.305-.739.678zm-2.018 2.018c-.167.17-.301.337-.297.371s.164.206.357.38l.35.318.641-.631v1.318h-2.065v-2.065h1.318l-.304.309z"/></symbol><symbol id="icon-slider-right" viewBox="0 0 32 32"><path fill="none" stroke="#db3138" style="stroke:var(--color2,#db3138)" stroke-width="1.352" d="M30.914 15.935 15.935.956.956 15.935l14.979 14.979 14.979-14.979z"/><path fill="#fff" style="fill:var(--color1,#fff)" d="m14.292 12.555 3.38 3.38-3.38 3.38.676 1.352 4.732-4.732-4.732-4.732-.676 1.352z"/></symbol><symbol id="icon-slider-left" viewBox="0 0 32 32"><path fill="none" stroke="#db3138" style="stroke:var(--color2,#db3138)" stroke-width="1.352" d="M.956 15.935 15.935.956l14.979 14.979-14.979 14.979L.956 15.935z"/><path fill="#fff" style="fill:var(--color1,#fff)" d="m17.577 12.555-3.38 3.38 3.38 3.38-.676 1.352-4.732-4.732 4.732-4.732.676 1.352z"/></symbol><symbol id="icon-cup" viewBox="0 0 26 32"><path fill="#fff" style="fill:var(--color1,#fff)" d="M4.964.495a1.837 1.837 0 0 0-1.177 1.221c-.051.168-.088.551-.088.897v.603l-1.158.02c-1.324.023-1.524.078-1.991.545-.51.51-.635 1.114-.498 2.419.234 2.246 1.001 3.982 2.298 5.206.675.637 1.499 1.13 2.277 1.364.252.076.297.119.454.441.507 1.036 1.366 2.295 2.199 3.22.473.526 1.377 1.332 2.069 1.845.625.464.788.63.967.991.14.282.145.342.164 2.209l.019 1.918-.463.229c-.736.364-1.192.97-1.342 1.786l-.074.402-.531.027c-.639.032-.995.174-1.364.543-.518.518-.522.542-.543 3.006l-.018 2.172.366.41 12.788.033.405-.362v-2.212c0-2.133-.005-2.223-.133-2.5a2.285 2.285 0 0 0-.392-.546c-.369-.369-.726-.511-1.361-.543l-.528-.026-.077-.406c-.157-.826-.646-1.454-1.419-1.819l-.39-.184.019-1.922c.019-1.871.023-1.93.164-2.212.179-.36.342-.527.967-.991 1.796-1.332 3.205-2.984 4.18-4.899.252-.495.281-.527.544-.607.787-.238 1.656-.761 2.305-1.387 1.287-1.242 2.037-2.955 2.269-5.183.136-1.305.012-1.909-.498-2.419-.467-.467-.668-.522-1.985-.545l-1.151-.02-.024-.721c-.019-.565-.052-.783-.154-1.008-.166-.365-.568-.768-.936-.939l-.287-.133-7.78-.014C5.802.391 5.255.397 4.967.497zm15.822 1.326.171.171-.002 3.256c-.002 3.574-.013 3.72-.405 5.194-.323 1.217-.952 2.622-1.619 3.618-.772 1.153-1.929 2.353-3.133 3.247-.75.558-1.006.829-1.26 1.333-.321.639-.343.855-.343 3.273v2.24l.17.187c.131.144.254.202.54.252.599.106 1.02.483 1.114.998l.042.232H9.859l.042-.232c.094-.514.541-.92 1.083-.984.235-.028.383-.087.519-.209l.191-.17.018-2.264c.019-2.457-.002-2.669-.329-3.32-.254-.507-.51-.777-1.261-1.336-1.204-.895-2.364-2.098-3.132-3.247-.655-.981-1.304-2.429-1.618-3.612-.393-1.481-.404-1.625-.406-5.196-.002-3.165.002-3.254.122-3.388.068-.076.179-.16.247-.188s3.534-.046 7.701-.039l7.578.012.171.171zM3.699 6.116c0 2.212.137 3.501.501 4.725.069.232.114.435.099.45-.059.059-.962-.606-1.29-.95-1.083-1.136-1.715-2.894-1.74-4.84-.007-.576.007-.673.115-.795.195-.218.311-.239 1.343-.243l.973-.004v1.656zm20.792-1.454c.167.168.171.188.163.834-.024 1.951-.655 3.708-1.74 4.845-.328.344-1.231 1.009-1.29.95-.015-.015.029-.217.099-.45.364-1.225.501-2.513.501-4.729v-1.66l2.097.039.171.172zm-6.175 22.599.171.171.037 3.332H7.398l.018-1.661c.017-1.56.026-1.669.142-1.798.068-.075.179-.16.247-.188s2.422-.046 5.232-.039l5.108.012.171.171zm-8.048 1.093c-.194.079-.394.365-.394.564 0 .107.07.255.18.378l.18.202 2.903.037.204-.182c.169-.151.204-.226.204-.442s-.035-.291-.2-.439l-.2-.179-1.373.004c-.755.002-1.432.028-1.503.057zm4.94 0c-.194.079-.394.365-.394.564 0 .247.284.544.563.588.188.03.256.006.431-.15.174-.155.208-.228.208-.445 0-.215-.035-.291-.2-.439-.203-.181-.37-.214-.607-.118z"/><path fill="#db3138" style="fill:var(--color2,#db3138)" d="M12.843 4.134c-.325.091-.395.192-.999 1.435-.338.697-.625 1.276-.636 1.288s-.586.101-1.277.2c-.691.098-1.357.207-1.481.243-.274.078-.424.29-.424.601 0 .219.061.294 1.045 1.273l1.045 1.04-.238 1.396c-.212 1.245-.229 1.418-.155 1.595.046.109.139.229.208.265.297.159.539.081 1.784-.578l1.218-.644 1.243.644c1.37.71 1.576.766 1.847.495.082-.082.165-.214.184-.293s-.071-.761-.201-1.516l-.237-1.372 1.032-1.03c.661-.66 1.043-1.088 1.062-1.191a.626.626 0 0 0-.341-.65c-.112-.049-.718-.161-1.346-.25s-1.22-.176-1.315-.195c-.154-.031-.241-.172-.816-1.32-.354-.707-.673-1.305-.71-1.327-.119-.074-.4-.136-.494-.11zm.54 2.905c.221.43.471.829.556.89.126.09 1.531.352 1.933.36.041.001-.253.317-.652.702-.416.402-.618.579-.691.798-.075.224-.015.493.089 1.091.067.391.123.758.123.817 0 .085-.169.018-.823-.324-.453-.237-.901-.431-.996-.431s-.544.196-.998.436c-.454.24-.826.407-.826.372s.069-.456.153-.936c.134-.762.142-.896.07-1.067-.046-.107-.366-.469-.712-.804s-.619-.619-.606-.632c.013-.013.424-.081.914-.152s.951-.167 1.024-.214c.073-.047.317-.465.542-.93s.429-.825.454-.801c.025.024.225.395.446.824zM16.178 28.973a.679.679 0 1 1-1.358 0 .679.679 0 0 1 1.358 0z"/></symbol><symbol id="icon-6" viewBox="0 0 29 32"><path fill="#db3138" style="fill:var(--color2,#db3138)" d="M6.679 31.158H4.84l1.233-4.487h-1.96L2.86 31.158H1.021l1.233-4.507H.233l.525-1.799h1.981l.687-2.425H1.425l.525-1.859h2.001l1.011-3.557h1.839L5.79 20.568h1.981l1.011-3.557h1.88l-1.051 3.557h1.981l-.525 1.859H9.086l-.687 2.425h2.021l-.465 1.799H7.914l-1.233 4.507zm-.121-6.306.687-2.425H5.264l-.687 2.425h1.981zm21.476-5.342v4.554c0 1.868-.263 3.328-.788 4.379-1.051 2.102-3.036 3.153-5.955 3.153-2.948 0-4.992-1.095-6.131-3.284-.35-.642-.613-1.401-.788-2.277-.146-.876-.234-1.562-.263-2.058V8.87c0-2.949.525-5.094 1.576-6.437C16.911.857 18.677.068 20.984.068s4.087.744 5.342 2.233c.905 1.08 1.357 2.627 1.357 4.642v2.54h-4.817V7.25c0-.847-.131-1.533-.394-2.058-.321-.555-.832-.832-1.533-.832-.584 0-1.036.248-1.357.744-.321.525-.482 1.284-.482 2.277v6.831a4.268 4.268 0 0 1 1.445-1.445c.759-.467 1.635-.701 2.627-.701 1.43 0 2.569.496 3.416 1.489.963 1.109 1.445 3.094 1.445 5.955zm-8.933-.394v5.474c0 .847.131 1.489.394 1.927.38.525.905.788 1.576.788.759 0 1.285-.234 1.576-.701.263-.38.394-1.036.394-1.971V18.94c0-.963-.131-1.649-.394-2.058-.379-.467-.905-.701-1.576-.701-.701 0-1.211.234-1.533.701-.292.409-.438 1.153-.438 2.233z"/></symbol><symbol id="icon-4" viewBox="0 0 30 32"><path fill="#db3138" style="fill:var(--color2,#db3138)" d="M6.816 32H4.927l1.266-4.608H4.18L2.893 32H1.004l1.266-4.629H.194l.54-1.847h2.034l.706-2.491H1.419l.54-1.91h2.055l1.038-3.653h1.889l-1.038 3.653h2.034l1.038-3.653h1.93l-1.079 3.653h2.034l-.54 1.91H9.286l-.706 2.491h2.076l-.477 1.847H8.083L6.817 32zm-.124-6.476.706-2.491H5.364l-.706 2.491h2.034zM27.174 32h-5.127v-5.757h-8.59V22.06L22.047.518h5.127v21.497h2.339v4.227h-2.339v5.757zm-5.127-9.984V11.312l-3.868 10.704h3.868z"/></symbol><symbol id="icon-3" viewBox="0 0 29 32"><path fill="#db3138" style="fill:var(--color2,#db3138)" d="M6.808 31.158H4.969l1.233-4.487h-1.96l-1.253 4.487H1.15l1.233-4.507H.362l.525-1.799h1.981l.687-2.425H1.554l.525-1.859H4.08l1.011-3.557H6.93l-1.011 3.557H7.9l1.011-3.557h1.88L9.74 20.568h1.981l-.525 1.859H9.215l-.687 2.425h2.021l-.465 1.799H8.043L6.81 31.158zm-.122-6.306.687-2.425H5.392l-.687 2.425h1.981zm7.026-3.766h4.992v2.54c0 1.372.102 2.262.307 2.671.321.671.934 1.007 1.839 1.007.934 0 1.547-.336 1.839-1.007.146-.292.219-1.066.219-2.321V21.13c0-1.722-.146-2.803-.438-3.24-.525-.759-1.576-1.139-3.153-1.139h-1.533V12.46h2.715c.292 0 .525-.015.701-.044s.394-.102.657-.219c.292-.146.496-.394.613-.744.146-.38.219-.861.219-1.445V6.855c0-.847-.117-1.445-.35-1.795-.35-.467-.861-.701-1.533-.701-.701 0-1.212.219-1.533.657-.234.35-.35.978-.35 1.883v2.146h-4.992V6.768c0-1.664.365-3.021 1.095-4.072C16.194.944 18.135.069 20.85.069c2.686 0 4.612.803 5.78 2.408.701.993 1.051 2.306 1.051 3.941v2.408c0 1.255-.073 2.219-.219 2.89-.146.642-.482 1.241-1.007 1.795-.642.642-1.387 1.051-2.233 1.226 1.547.38 2.627 1.387 3.24 3.021.292.847.438 2.014.438 3.503v2.934c0 1.927-.307 3.445-.92 4.554-1.109 1.898-3.168 2.846-6.174 2.846-2.832 0-4.817-.905-5.955-2.715-.759-1.168-1.139-2.89-1.139-5.167v-2.627z"/></symbol><symbol id="icon-2" viewBox="0 0 29 32"><path fill="#db3138" style="fill:var(--color2,#db3138)" d="M6.757 32H4.868l1.266-4.608H4.121L2.834 32H.945l1.266-4.629H.135l.54-1.847h2.034l.706-2.491H1.36l.54-1.91h2.055l1.038-3.653h1.889l-1.038 3.653h2.034l1.038-3.653h1.93l-1.079 3.653h2.034l-.54 1.91H9.227l-.706 2.491h2.076l-.477 1.847H8.024L6.758 32zm-.125-6.476.706-2.491H5.304l-.706 2.491h2.034zM28.239 32H13.848c-.33-2.968.315-5.861 1.934-8.68a31.206 31.206 0 0 1 3.148-4.407c1.109-1.259 1.919-2.219 2.429-2.878.75-.989 1.214-1.799 1.394-2.429.21-.66.315-1.499.315-2.518V8.255c0-1.049-.09-1.814-.27-2.294-.27-.69-.824-1.034-1.664-1.034-.809 0-1.349.345-1.619 1.034-.18.36-.27 1.229-.27 2.608v4.137h-4.992V8.973c0-2.129.24-3.748.72-4.857.51-1.199 1.319-2.099 2.429-2.698s2.354-.899 3.733-.899c2.728 0 4.677.989 5.846 2.968.809 1.379 1.214 3.163 1.214 5.352v1.574c0 2.159-.165 3.763-.495 4.812-.36 1.169-1.289 2.653-2.788 4.452-.6.72-1.304 1.514-2.114 2.384-.779.869-1.289 1.454-1.529 1.754-1.049 1.229-1.739 2.488-2.069 3.778h9.04V32z"/></symbol><symbol id="icon-1" viewBox="0 0 23 32"><path fill="#db3138" style="fill:var(--color2,#db3138)" d="M6.907 32H5.018l1.266-4.608H4.271L2.984 32H1.095l1.266-4.629H.285l.54-1.847h2.034l.706-2.491H1.51l.54-1.91h2.055l1.038-3.653h1.889l-1.038 3.653h2.034l1.038-3.653h1.93l-1.079 3.653h2.034l-.54 1.91H9.377l-.706 2.491h2.076l-.477 1.847H8.174L6.908 32zm-.124-6.476.706-2.491H5.455l-.706 2.491h2.034zM22.453 32h-5.127V7.67c-1.559.72-2.818 1.124-3.778 1.214V5.016c1.109-.27 1.979-.675 2.608-1.214.959-.78 1.619-1.874 1.979-3.283h4.317V32z"/></symbol><symbol id="icon-blocks" viewBox="0 0 294 32"><path fill="#db3138" style="fill:var(--color2,#db3138)" d="M0 16 14.142 1.858 28.284 16 14.142 30.142 0 16zM88.142 16l14.142-14.142L116.426 16l-14.142 14.142L88.142 16zM176.284 16l14.142-14.142L204.568 16l-14.142 14.142L176.284 16zM264.426 16l14.142-14.142L292.71 16l-14.142 14.142L264.426 16z"/></symbol><symbol id="icon-burger" viewBox="0 0 64 32"><path fill="#db3138" style="fill:var(--color2,#db3138)" d="M12.8 0H64v3.84H12.8V0zM0 14.08h51.2v3.84H0v-3.84zM12.8 28.16H64V32H12.8v-3.84z"/></symbol></defs></svg>