<svg aria-hidden="true" style="position: absolute; width: 0; height: 0; overflow: hidden;" version="1.1" xmlns="http://www.w3.org/2000/svg" xmlns:xlink="http://www.w3.org/1999/xlink">
<defs>
<symbol id="icon-mail" viewBox="0 0 32 32">
<path d="M3.429 11.57l12.176 6.333c0.122 0.063 0.258 0.097 0.395 0.097s0.273-0.033 0.395-0.097l12.176-6.331v11c0 0.949-0.363 1.861-1.015 2.551s-1.542 1.104-2.489 1.157l-0.21 0.006h-17.714c-0.949 0-1.862-0.363-2.551-1.014s-1.104-1.542-1.157-2.49l-0.006-0.21v-11.001zM7.143 5.714h17.714c0.949-0 1.861 0.363 2.551 1.014s1.104 1.542 1.157 2.49l0.006 0.21v0.21l-12.571 6.537-12.571-6.537v-0.21c-0-0.949 0.363-1.862 1.014-2.551s1.542-1.104 2.49-1.157l0.21-0.006z"></path>
</symbol>
<symbol id="icon-tel" viewBox="0 0 32 32">
<path d="M25.329 26.667c-11.375 0.016-20.008-8.72-19.996-19.996 0-0.737 0.597-1.337 1.333-1.337h3.52c0.66 0 1.221 0.485 1.319 1.139 0.232 1.567 0.688 3.092 1.353 4.529l0.137 0.296c0.092 0.199 0.112 0.424 0.056 0.637s-0.184 0.398-0.363 0.526c-1.091 0.779-1.507 2.345-0.657 3.567 1.069 1.538 2.404 2.873 3.941 3.943 1.223 0.848 2.789 0.432 3.567-0.657 0.128-0.179 0.314-0.308 0.526-0.364s0.438-0.037 0.638 0.056l0.295 0.136c1.437 0.667 2.963 1.123 4.529 1.355 0.653 0.097 1.139 0.659 1.139 1.32v3.519c0 0.175-0.035 0.349-0.102 0.511s-0.165 0.309-0.289 0.433c-0.124 0.124-0.271 0.222-0.433 0.289s-0.335 0.101-0.511 0.101h-0.003z"></path>
</symbol>
<symbol id="icon-map" viewBox="0 0 32 32">
<path d="M16 2c-2.916 0.003-5.712 1.163-7.774 3.226s-3.222 4.858-3.226 7.774c-0.003 2.383 0.775 4.702 2.216 6.6 0 0 0.3 0.395 0.349 0.452l8.435 9.948 8.439-9.953c0.044-0.053 0.345-0.447 0.345-0.447l0.001-0.003c1.44-1.897 2.218-4.215 2.215-6.597-0.003-2.916-1.163-5.712-3.226-7.774s-4.858-3.222-7.774-3.226zM16 17c-0.791 0-1.565-0.235-2.222-0.674s-1.171-1.064-1.473-1.795c-0.303-0.731-0.382-1.535-0.228-2.311s0.535-1.489 1.095-2.048c0.559-0.559 1.272-0.94 2.048-1.095s1.58-0.075 2.311 0.228c0.731 0.303 1.356 0.815 1.795 1.473s0.674 1.431 0.674 2.222c-0.001 1.060-0.423 2.077-1.173 2.827s-1.766 1.172-2.827 1.173z"></path>
</symbol>
<symbol id="icon-wk" viewBox="0 0 32 32">
<path d="M31.95 7.816c0.272 0.735-0.564 2.451-2.507 5.147-0.272 0.368-0.622 0.858-1.049 1.47-0.894 1.144-1.399 1.899-1.516 2.267-0.194 0.49-0.117 0.96 0.233 1.409 0.194 0.245 0.641 0.735 1.341 1.471h0.058v0.061c1.594 1.511 2.662 2.798 3.207 3.86l0.117 0.245 0.117 0.46v0.582l-0.408 0.46-0.991 0.214-4.256 0.123c-0.272 0.041-0.593 0-0.962-0.123s-0.651-0.245-0.845-0.368l-0.35-0.245c-0.35-0.245-0.738-0.613-1.166-1.103s-0.806-0.94-1.137-1.348-0.671-0.745-1.020-1.011c-0.35-0.266-0.661-0.357-0.933-0.276-0.039 0-0.088 0.020-0.146 0.061s-0.156 0.133-0.292 0.276c-0.136 0.143-0.253 0.317-0.35 0.521s-0.185 0.5-0.262 0.888c-0.078 0.388-0.117 0.848-0.117 1.379 0 0.164-0.020 0.317-0.058 0.46s-0.078 0.255-0.116 0.337l-0.058 0.061c-0.233 0.245-0.544 0.368-0.933 0.368h-1.866c-0.816 0.082-1.642 0-2.478-0.245s-1.564-0.562-2.186-0.95-1.185-0.776-1.691-1.164c-0.505-0.388-0.894-0.725-1.166-1.011l-0.408-0.429c-0.117-0.082-0.272-0.245-0.466-0.49s-0.593-0.776-1.195-1.593c-0.602-0.817-1.195-1.695-1.778-2.635s-1.263-2.175-2.041-3.707c-0.777-1.532-1.496-3.115-2.157-4.748-0.078-0.204-0.117-0.368-0.117-0.49s0.019-0.225 0.058-0.306l0.058-0.061c0.155-0.245 0.466-0.368 0.933-0.368h4.606c0.117 0 0.233 0.031 0.35 0.092l0.292 0.153 0.058 0.061c0.194 0.123 0.33 0.306 0.408 0.551 0.233 0.572 0.496 1.174 0.787 1.807s0.515 1.113 0.67 1.44l0.233 0.49c0.35 0.694 0.67 1.297 0.962 1.807s0.554 0.909 0.787 1.195c0.233 0.286 0.466 0.511 0.7 0.674s0.428 0.245 0.583 0.245c0.155 0 0.311-0.020 0.466-0.061l0.058-0.092 0.204-0.398 0.233-0.797 0.146-1.409v-2.206c-0.039-0.449-0.097-0.868-0.175-1.256s-0.155-0.664-0.233-0.827l-0.058-0.184c-0.272-0.408-0.758-0.674-1.458-0.797-0.117 0-0.078-0.143 0.117-0.429 0.194-0.204 0.408-0.368 0.641-0.49 0.583-0.327 1.905-0.47 3.965-0.429 0.894 0 1.652 0.082 2.274 0.245 0.194 0.041 0.369 0.112 0.525 0.214s0.272 0.245 0.35 0.429c0.078 0.184 0.136 0.368 0.175 0.551s0.058 0.449 0.058 0.796v0.95c-0.039 0.327-0.058 0.735-0.058 1.225v1.47c0 0.123-0.010 0.368-0.029 0.735s-0.029 0.654-0.029 0.858 0.020 0.439 0.058 0.705c0.039 0.265 0.107 0.49 0.204 0.674s0.224 0.317 0.379 0.398c0.078 0.041 0.165 0.072 0.262 0.092s0.243-0.041 0.437-0.184c0.194-0.143 0.408-0.347 0.641-0.613s0.525-0.664 0.875-1.195c0.35-0.531 0.719-1.144 1.108-1.838 0.661-1.225 1.263-2.553 1.807-3.983 0.039-0.082 0.088-0.174 0.146-0.276s0.126-0.174 0.204-0.214h0.058l0.058-0.061 0.233-0.061h0.35l4.781-0.061c0.428-0.041 0.787-0.020 1.079 0.061s0.457 0.184 0.496 0.306l0.117 0.184z"></path>
</symbol>
<symbol id="icon-yt" viewBox="0 0 32 32">
<path d="M31.333 8.676c-0.181-0.646-0.534-1.232-1.021-1.693-0.501-0.476-1.115-0.817-1.784-0.989-2.504-0.66-12.536-0.66-12.536-0.66-4.182-0.048-8.363 0.162-12.52 0.627-0.669 0.186-1.282 0.534-1.784 1.013-0.493 0.475-0.851 1.060-1.037 1.701-0.448 2.416-0.666 4.868-0.651 7.325-0.016 2.455 0.201 4.907 0.651 7.325 0.183 0.639 0.539 1.221 1.033 1.692s1.111 0.811 1.788 0.991c2.537 0.659 12.52 0.659 12.52 0.659 4.187 0.048 8.374-0.162 12.536-0.627 0.669-0.173 1.283-0.513 1.784-0.989 0.493-0.471 0.844-1.056 1.020-1.693 0.46-2.415 0.684-4.868 0.668-7.327 0.035-2.469-0.189-4.934-0.667-7.356v0.001zM12.803 20.565v-9.129l8.347 4.565-8.347 4.564z"></path>
</symbol>
<symbol id="icon-tg" viewBox="0 0 32 32">
<path d="M27.553 4.956l-23.64 9.116c-1.613 0.648-1.604 1.548-0.296 1.949l6.069 1.893 14.043-8.86c0.664-0.404 1.271-0.187 0.772 0.256l-11.377 10.269-0.419 6.256c0.613 0 0.884-0.281 1.228-0.613l2.948-2.867 6.132 4.529c1.131 0.623 1.943 0.303 2.224-1.047l4.025-18.971c0.412-1.652-0.631-2.4-1.709-1.912z"></path>
</symbol>
<symbol id="icon-plenka" viewBox="0 0 39 32">
<path fill="#fff" style="fill: var(--color1, #fff)" d="M29.077 1.526c-1.822 1.146-2.361 1.447-2.789 1.56l-0.531 0.14-2.858-0.348c-3.205-0.39-3.67-0.395-5.014-0.052-0.424 0.108-1.048 0.334-1.386 0.503s-2.212 1.339-4.165 2.602c-3.646 2.357-3.838 2.506-3.979 3.087-0.029 0.122-0.184 0.306-0.361 0.428-0.17 0.118-0.417 0.379-0.549 0.579-0.431 0.654-0.474 0.948-0.474 3.212v2.056h-6.972v1.274h10.188c5.603 0 10.174 0.027 10.157 0.060-0.578 1.132-0.919 2.062-1.145 3.125-0.199 0.935-0.196 2.955 0.006 3.898 0.902 4.22 4.138 7.377 8.282 8.078 5.6 0.947 10.86-2.937 11.698-8.638 0.319-2.171-0.065-4.21-1.216-6.463-0.017-0.033 0.275-0.060 0.65-0.060h0.68v-1.274h-2.213l-0.673-0.701c-2.026-2.112-4.848-3.245-7.691-3.088-0.523 0.029-1.067 0.073-1.208 0.099-0.243 0.044-0.258 0.033-0.258-0.189 0-0.208 0.039-0.247 0.337-0.335 0.587-0.175 1.505-0.703 2.119-1.221 0.327-0.275 1.646-1.159 2.932-1.963s2.381-1.502 2.434-1.551c0.076-0.069 0.026-0.207-0.223-0.617l-0.32-0.528-0.926 0.579c-0.509 0.319-1.621 1.014-2.471 1.545s-1.738 1.134-1.973 1.34c-0.703 0.614-1.4 1.029-2.131 1.269-0.632 0.208-0.782 0.227-1.799 0.22-0.93-0.006-1.308-0.049-2.337-0.267-1.040-0.22-1.471-0.269-2.813-0.317-0.872-0.032-1.679-0.097-1.794-0.146-0.399-0.169-1.019-0.831-1.019-1.090 0-0.024 0.963-0.044 2.139-0.044h2.139v-1.274h-5.235l-2.779 1.549c-2.927 1.632-3.287 1.782-3.707 1.545-0.281-0.159-0.389-0.5-0.24-0.76 0.11-0.193 6.547-4.42 7.366-4.837 0.764-0.389 1.94-0.679 2.768-0.684 0.243-0.001 1.679 0.15 3.191 0.335 3.809 0.467 3.511 0.535 6.884-1.569 1.107-0.691 2.057-1.296 2.11-1.345 0.076-0.070 0.031-0.199-0.207-0.588-0.168-0.274-0.319-0.511-0.336-0.526s-1.047 0.612-2.289 1.393zM7.329 1.375c-0.213 0.121-0.248 0.182-0.441 0.761-0.199 0.597-0.521 0.95-0.929 1.018-0.495 0.082-0.712 0.2-0.81 0.438-0.192 0.467 0.086 0.812 0.736 0.914 0.464 0.073 0.78 0.41 1.003 1.071 0.202 0.6 0.381 0.799 0.719 0.799 0.335 0 0.531-0.208 0.712-0.752 0.093-0.282 0.245-0.609 0.337-0.726 0.187-0.239 0.587-0.433 0.894-0.433 0.284 0 0.593-0.332 0.593-0.637 0-0.327-0.308-0.637-0.634-0.637-0.553 0-0.926-0.363-1.19-1.159-0.227-0.685-0.556-0.904-0.989-0.657zM7.762 3.705c0.076 0.091 0.072 0.15-0.018 0.279-0.113 0.162-0.114 0.162-0.255 0.005-0.116-0.129-0.124-0.18-0.042-0.279 0.125-0.151 0.194-0.152 0.315-0.005zM2.874 7.745c-0.102 0.049-0.231 0.24-0.308 0.453-0.374 1.041-0.546 1.235-1.199 1.358-0.381 0.071-0.734 0.365-0.734 0.61 0 0.251 0.243 0.587 0.457 0.631 0.873 0.18 1.088 0.362 1.359 1.152 0.198 0.575 0.395 0.796 0.71 0.796 0.344 0 0.539-0.204 0.721-0.752 0.094-0.282 0.245-0.609 0.337-0.726 0.187-0.239 0.587-0.433 0.894-0.433 0.284 0 0.593-0.332 0.593-0.637 0-0.327-0.308-0.637-0.634-0.637-0.553 0-0.926-0.363-1.19-1.159-0.229-0.691-0.53-0.887-1.006-0.656zM16.066 8.828c0.020 0.061-0.063 0.094-0.233 0.092-0.25-0.002-0.256-0.009-0.109-0.12 0.17-0.129 0.293-0.119 0.342 0.028zM3.325 10.074c0.076 0.091 0.072 0.15-0.018 0.279-0.113 0.162-0.114 0.162-0.256 0.005-0.116-0.129-0.124-0.18-0.042-0.279 0.125-0.151 0.194-0.152 0.315-0.005zM17.644 10.491l0.592 0.294 1.677 0.058c1.433 0.050 1.844 0.094 2.826 0.305 0.774 0.166 1.491 0.263 2.199 0.297l1.050 0.050v0.258c0 0.215-0.036 0.267-0.218 0.312-0.446 0.111-1.825 0.839-2.484 1.311-0.375 0.268-0.994 0.809-1.377 1.202l-0.696 0.714h-12.974v-2.034c0-1.721 0.020-2.073 0.129-2.289 0.176-0.347 0.176-0.347 0.312-0.152 0.211 0.303 0.79 0.585 1.293 0.631 0.634 0.058 1.329-0.167 2.385-0.771l0.832-0.475 3.86-0.006 0.592 0.294zM19.649 12.108v0.637h1.268v-1.274h-1.268v0.637zM30.545 12.862c3.697 0.603 6.54 3.379 7.341 7.168 0.13 0.617 0.13 2.648 0 3.264-0.776 3.673-3.45 6.36-7.105 7.14-0.614 0.131-2.635 0.131-3.248 0-2.754-0.588-4.963-2.231-6.202-4.613-1.372-2.638-1.392-5.548-0.057-8.219 1.699-3.4 5.518-5.352 9.272-4.74zM11.409 14.019v0.637h1.268v-1.274h-1.268v0.637z"></path>
<path fill="#db3138" style="fill: var(--color2, #db3138)" d="M23.054 17.403c0.338-0.687 0.986-1.219 1.705-1.401 0.131-0.033 1.325-0.054 2.654-0.046 2.335 0.014 2.429 0.020 2.776 0.194 0.565 0.283 0.898 0.604 1.192 1.148l0.272 0.504 0.026 1.756 0.026 1.756 0.283-0.261c0.495-0.456 0.93-0.62 1.645-0.621 0.737-0.001 1.173 0.161 1.691 0.632 0.698 0.633 0.903 1.479 0.729 2.995-0.222 1.929-0.536 2.592-1.462 3.083l-0.403 0.214h-9.508l-0.501-0.273c-0.541-0.295-0.861-0.63-1.142-1.197-0.178-0.36-0.179-0.374-0.179-4.222v-3.861l0.196-0.398zM34.742 24.33c0.236-1.576 0.103-2.189-0.544-2.503-0.363-0.176-0.685-0.201-0.999-0.075-0.309 0.124-0.476 0.313-0.732 0.827-0.415 0.835-0.602 0.976-2.054 1.556-0.451 0.18-0.901 0.402-0.998 0.493-0.395 0.37-0.277 1.118 0.217 1.374 0.208 0.108 0.542 0.123 2.296 0.103l2.052-0.024 0.241-0.232c0.294-0.283 0.368-0.499 0.521-1.52zM29.84 17.408c0.12 0.090 0.292 0.263 0.382 0.384 0.155 0.209 0.165 0.34 0.186 2.592l0.023 2.373-0.657 0.264c-0.88 0.353-1.195 0.561-1.479 0.977-0.388 0.567-0.507 1.406-0.282 1.989 0.053 0.137-0.027 0.143-1.534 0.119-1.741-0.027-1.795-0.041-2.19-0.573-0.158-0.213-0.164-0.329-0.187-3.658-0.013-1.891-0.003-3.553 0.023-3.694 0.058-0.319 0.39-0.725 0.71-0.867 0.188-0.084 0.745-0.103 2.514-0.089 2.156 0.018 2.283 0.027 2.491 0.183z"></path>
</symbol>
<symbol id="icon-detail" viewBox="0 0 32 32">
<path fill="#fff" style="fill: var(--color1, #fff)" d="M20.454 0.329c-1.891 0.27-3.663 1.492-4.634 3.196-0.145 0.254-0.548 1.226-0.897 2.16l-0.634 1.698h-0.543v-0.353c0-0.29-0.028-0.381-0.156-0.509-0.148-0.148-0.194-0.156-0.906-0.155-0.829 0.001-2.228 0.137-2.903 0.283-0.774 0.167-1.253 0.559-1.504 1.229-0.337 0.901 0.071 1.92 0.941 2.347 0.357 0.175 0.391 0.179 1.737 0.211l1.373 0.032-0.759 0.922c-0.855 1.039-1.271 1.627-1.568 2.216-0.163 0.323-0.225 0.393-0.311 0.355-0.059-0.026-0.351-0.135-0.648-0.241-0.494-0.177-0.611-0.193-1.367-0.196-0.941-0.003-1.428 0.112-2.225 0.526-0.618 0.321-1.514 1.217-1.826 1.824-0.619 1.207-0.714 2.414-0.291 3.701l0.134 0.407-0.828 0.84c-0.456 0.462-0.877 0.936-0.937 1.054-0.167 0.329-0.196 0.827-0.069 1.209l0.109 0.327-0.252 0.4c-0.603 0.954-1.047 2.038-1.292 3.148-0.119 0.541-0.14 0.879-0.166 2.732l-0.030 2.115h1.017l0.032-2.083c0.034-2.218 0.057-2.418 0.404-3.483 0.186-0.57 0.631-1.499 0.917-1.915 0.171-0.249 0.204-0.269 0.35-0.213 0.24 0.091 0.6 0.075 0.953-0.045 0.256-0.087 0.474-0.264 1.188-0.966l0.875-0.86 0.397 0.136c0.5 0.172 1.047 0.269 1.516 0.269 0.347 0 1.172-0.131 1.409-0.224 0.103-0.040 0.111 0.023 0.112 0.806 0.001 0.944 0.099 1.532 0.346 2.071l0.161 0.352v2.418c0 1.712 0.023 2.494 0.077 2.68 0.103 0.349 0.63 0.876 0.979 0.98 0.184 0.054 0.932 0.077 2.516 0.077 2.618 0 2.674-0.009 3.123-0.508 0.376-0.418 0.426-0.634 0.426-1.837 0-0.981 0.006-1.026 0.126-1.026 0.069 0 0.591 0.042 1.16 0.094 1.968 0.178 3.726 0.224 8.585 0.224l4.88 0v-1.006l-5.706-0.029c-6.567-0.034-7.379-0.077-10.952-0.59-2.503-0.359-3.049-0.539-3.756-1.236-0.451-0.444-0.691-0.866-0.852-1.492-0.113-0.44-0.142-2.579-0.035-2.579 0.126 0 0.95-0.843 1.202-1.23 0.445-0.683 0.77-1.686 0.77-2.377 0-0.2 0.015-0.22 0.143-0.189 0.27 0.066 2.75 0.357 3.591 0.421 0.463 0.035 1.44 0.084 2.173 0.107l1.331 0.043 0.203-0.203c0.194-0.194 0.201-0.218 0.159-0.554-0.155-1.239-0.761-2.46-1.714-3.452-0.568-0.592-1.072-0.953-1.829-1.312-0.937-0.444-1.455-0.548-2.963-0.596l-1.29-0.041 2.496-3.052 0.699-0.112c1.844-0.295 4.657-0.596 7.016-0.752 0.595-0.039 2.933-0.086 5.198-0.105l4.117-0.033v-1.018l-4.18 0.034c-4.155 0.033-5.565 0.092-8.027 0.333-1.188 0.117-2.875 0.323-3.652 0.446-0.313 0.050-0.582 0.076-0.599 0.059-0.039-0.039 1.14-3.208 1.428-3.837 0.565-1.237 1.646-2.249 2.95-2.763 0.909-0.358 1.007-0.364 6.778-0.364h5.302v-1.018l-5.357 0.008c-2.946 0.004-5.528 0.032-5.738 0.062zM12.729 7.735c0 0.29 0.028 0.381 0.156 0.509 0.134 0.134 0.215 0.156 0.572 0.156 0.309 0 0.416 0.022 0.416 0.087 0 0.048-0.15 0.275-0.334 0.505l-0.334 0.418-1.685 0.004c-1.573 0.003-1.699-0.005-1.892-0.123-0.572-0.349-0.602-1.137-0.058-1.494 0.274-0.18 1.647-0.387 2.698-0.406l0.461-0.009v0.353zM15.006 13.672c0.916 0.272 1.846 0.84 2.448 1.494 0.542 0.589 1.082 1.56 1.217 2.188l0.045 0.207-0.275-0.001c-1.017-0.003-3.826-0.231-5.012-0.406l-0.54-0.080 0.286-0.088c0.375-0.116 0.898-0.632 1.004-0.991 0.176-0.596 0.052-1.072-0.397-1.521-0.645-0.645-1.457-0.644-2.109 0.004-0.2 0.199-0.344 0.405-0.372 0.534l-0.046 0.21-0.617-0.608 0.586-1.135 1.659 0.028c1.466 0.025 1.714 0.044 2.124 0.166zM22.425 13.548c-0.572 0.139-1.101 0.572-1.364 1.118-0.185 0.384-0.252 1.382-0.132 1.962 0.245 1.178 1.246 2.173 2.411 2.394 0.21 0.040 1.866 0.065 4.276 0.065h3.933v-1.018h-1.017v-1.527h1.017v-1.018h-1.017v-1.018h1.017v-1.018l-4.467 0.007c-2.457 0.004-4.552 0.027-4.657 0.053zM8.728 14.693c0.75 0.233 1.567 0.871 1.951 1.523 0.627 1.065 0.678 2.302 0.141 3.419s-1.637 1.867-2.89 1.973c-0.444 0.038-1.272-0.065-1.334-0.165-0.015-0.025 0.149-0.219 0.366-0.43l0.394-0.385 0.467-0.036c0.925-0.072 1.675-0.585 2.093-1.432 0.224-0.454 0.237-0.515 0.237-1.088 0-0.55-0.019-0.648-0.201-1.032-0.28-0.591-0.64-0.96-1.219-1.246-0.454-0.224-0.514-0.238-1.091-0.238s-0.637 0.013-1.091 0.238c-0.847 0.419-1.36 1.169-1.431 2.094l-0.036 0.467-0.385 0.394c-0.212 0.217-0.406 0.381-0.432 0.366s-0.081-0.234-0.124-0.485c-0.305-1.811 0.921-3.616 2.736-4.028 0.526-0.119 1.294-0.081 1.848 0.091zM23.411 15.016v0.509h-0.763c-0.829 0-0.832-0.001-0.695-0.362 0.163-0.43 0.53-0.65 1.093-0.654l0.366-0.002v0.509zM25.445 15.016v0.509h-1.017v-1.018h1.017v0.509zM27.48 15.016v0.509h-1.017v-1.018h1.017v0.509zM29.515 15.016v0.509h-1.017v-1.018h1.017v0.509zM13.082 15.172c0.315 0.316 0.092 0.862-0.353 0.862-0.124 0-0.254-0.058-0.353-0.156s-0.156-0.229-0.156-0.353 0.058-0.254 0.156-0.353c0.098-0.098 0.229-0.156 0.353-0.156s0.254 0.058 0.353 0.156zM15.365 15.105c-0.642 0.279-0.793 1.133-0.29 1.635 0.714 0.715 1.885 0.075 1.697-0.928-0.113-0.6-0.828-0.96-1.407-0.707zM8.159 16.64c0.153 0.054 0.399 0.216 0.546 0.361 0.589 0.577 0.617 1.452 0.065 2.042-0.148 0.159-0.23 0.215-0.203 0.138 0.106-0.302 0.104-0.728-0.004-1.053-0.271-0.817-1.184-1.258-2.034-0.982-0.079 0.026-0.026-0.053 0.14-0.208 0.416-0.388 0.938-0.493 1.489-0.299zM23.411 17.272v0.73l-0.159-0.061c-0.319-0.121-0.513-0.247-0.753-0.487s-0.365-0.434-0.486-0.753l-0.061-0.159h1.459v0.73zM25.445 17.305v0.763h-1.017v-1.527h1.017v0.763zM27.48 17.305v0.763h-1.017v-1.527h1.017v0.763zM29.515 17.305v0.763h-1.017v-1.527h1.017v0.763zM7.457 18.255c0.131 0.131 0.186 0.249 0.186 0.397 0 0.192-0.191 0.402-2.147 2.358s-2.166 2.148-2.357 2.148c-0.289 0-0.582-0.293-0.582-0.582 0-0.192 0.191-0.402 2.147-2.358s2.166-2.148 2.357-2.148c0.148 0 0.266 0.055 0.396 0.186zM15.991 19.691c-0.077 0.054-0.196 0.275-0.273 0.505-0.209 0.627-0.511 0.926-0.938 0.926-0.099 0-0.236 0.040-0.305 0.088-0.107 0.075-0.307 0.075-1.334 0.002-1.634-0.116-1.6-0.117-1.783 0.066l-0.156 0.156v1.486c0 1.727 0.042 1.936 0.482 2.376 0.192 0.192 0.37 0.299 0.61 0.366 0.228 0.064 1.625 0.171 4.268 0.327 3.624 0.213 3.941 0.224 4.084 0.13 0.085-0.056 0.173-0.175 0.196-0.264 0.061-0.241-1.012-3.967-1.182-4.108-0.088-0.072-0.318-0.12-0.734-0.151-0.578-0.043-0.611-0.054-0.697-0.221-0.099-0.191-0.212-0.254-0.453-0.254-0.401 0-0.717-0.315-0.911-0.907-0.149-0.455-0.302-0.62-0.575-0.62-0.089 0-0.224 0.043-0.299 0.095zM16.419 21.539c0.067 0.081 0.063 0.117-0.024 0.204-0.099 0.099-0.113 0.099-0.212 0-0.087-0.087-0.092-0.123-0.024-0.204 0.045-0.054 0.103-0.099 0.13-0.099s0.085 0.044 0.13 0.099zM21.523 21.796c-0.159 0.159-0.163 0.184-0.124 0.697 0.085 1.112 0.519 2.034 1.344 2.859 0.578 0.578 1.109 0.912 1.844 1.161l0.509 0.172 6.454 0.042v-1.025h-2.978c-2.769 0-3.013-0.009-3.475-0.127-0.64-0.164-1.195-0.477-1.648-0.931-0.416-0.416-0.634-0.762-0.843-1.338-0.268-0.738-0.811-0.657 4.398-0.657h4.546v-1.018h-9.861l-0.165 0.165zM14.064 22.297c1.496 0.106 1.423 0.072 1.653 0.766 0.145 0.437 0.303 0.603 0.572 0.603 0.266 0 0.427-0.167 0.568-0.588 0.205-0.612 0.125-0.574 1.102-0.522 0.473 0.025 0.895 0.067 0.937 0.093 0.078 0.049 0.783 2.419 0.734 2.468-0.024 0.025-3.078-0.142-5.661-0.309-0.49-0.032-1-0.058-1.133-0.059-0.183-0.001-0.289-0.047-0.429-0.187l-0.186-0.186v-2.172l0.27 0.001c0.149 0 0.857 0.042 1.574 0.093zM11.6 27.451c0.514 0.242 1.17 0.387 2.877 0.639 0.629 0.093 1.18 0.179 1.224 0.192 0.060 0.018 0.079 0.296 0.079 1.11 0 1.069-0.003 1.089-0.156 1.242l-0.156 0.156h-4.462l-0.312-0.312v-3.583l0.222 0.169c0.122 0.093 0.43 0.267 0.684 0.387z"></path>
<path fill="#db3138" style="fill: var(--color2, #db3138)" d="M3.221 8.048c-0.086 0.086-0.156 0.209-0.156 0.273 0 0.196-0.189 0.859-0.324 1.141-0.311 0.646-0.933 1.193-1.614 1.42-0.439 0.146-0.605 0.303-0.605 0.573 0 0.262 0.166 0.429 0.533 0.536 1.023 0.298 1.803 1.26 1.987 2.451 0.119 0.77 0.945 0.77 1.064 0 0.184-1.191 0.964-2.154 1.987-2.451 0.367-0.107 0.533-0.274 0.533-0.536 0-0.269-0.166-0.427-0.605-0.573-0.681-0.227-1.303-0.774-1.614-1.42-0.136-0.282-0.324-0.945-0.324-1.141 0-0.187-0.287-0.429-0.509-0.429-0.124 0-0.254 0.058-0.353 0.156zM3.785 10.403c0.099 0.157 0.368 0.457 0.597 0.668l0.417 0.382-0.417 0.382c-0.229 0.21-0.498 0.511-0.597 0.668s-0.195 0.285-0.212 0.285c-0.018 0-0.113-0.128-0.212-0.285s-0.368-0.458-0.597-0.668l-0.417-0.382 0.417-0.382c0.229-0.21 0.498-0.511 0.597-0.668s0.195-0.285 0.212-0.285c0.017 0 0.113 0.128 0.212 0.285z"></path>
</symbol>
<symbol id="icon-oil" viewBox="0 0 49 32">
<path fill="#fff" style="fill: var(--color1, #fff)" d="M10.437 0.34c-0.133 0.133-0.241 0.305-0.241 0.383 0 0.116-0.295 0.149-1.645 0.182-1.848 0.046-2.267 0.153-3.159 0.808-0.98 0.719-1.071 0.932-3.352 7.781-1.963 5.894-2.079 6.285-2.031 6.812 0.097 1.073 0.705 1.961 1.634 2.391 0.417 0.193 0.644 0.211 3.037 0.239 2.744 0.032 2.965 0.001 3.099-0.445 0.029-0.096 0.342-2.355 0.697-5.019s0.703-4.986 0.775-5.158c0.072-0.172 0.303-0.465 0.514-0.65l0.383-0.337 0.067 1.811c0.114 3.075 0.44 7.009 0.726 8.767 0.061 0.373 0.064 0.375 0.444 0.319 1.281-0.188 1.185-0.151 1.127-0.434-0.216-1.057-0.585-5.374-0.703-8.24l-0.066-1.596h2.449l0.112 0.373c0.161 0.539 0.727 1.147 1.35 1.452 0.607 0.297 0.828 0.549 0.828 0.942 0 0.365-0.346 0.708-0.926 0.918-0.568 0.206-1.212 0.814-1.455 1.374-0.198 0.457-2.997 12.987-3.086 13.82-0.222 2.061 1.323 4.153 3.385 4.585 0.733 0.153 16.013 0.152 16.736-0.002 2.078-0.441 3.608-2.513 3.385-4.583-0.123-1.137-2.912-13.411-3.168-13.94-0.288-0.596-0.785-1.042-1.413-1.268-0.783-0.282-1.098-0.866-0.742-1.375 0.079-0.113 0.387-0.324 0.685-0.47 0.891-0.436 1.529-1.386 1.529-2.277 0-0.239 0.052-0.336 0.207-0.385 0.114-0.036 1.045-0.57 2.068-1.185l1.861-1.119h12.667l0.241-0.241c0.239-0.239 0.241-0.256 0.241-2.116s-0.002-1.877-0.241-2.116l-0.241-0.241h-17.107l-0.241 0.241c-0.133 0.133-0.241 0.309-0.241 0.393 0 0.136-0.836 0.152-7.857 0.152s-7.857-0.016-7.857-0.152c0-0.083-0.109-0.26-0.241-0.393-0.239-0.239-0.256-0.241-2.116-0.241s-1.877 0.002-2.116 0.241zM13.338 4.027v2.357h-1.571v-4.714h1.571v2.357zM42.41 2.456v0.786h-7.288l-2.926 1.761v-3.332h10.214v0.786zM47.124 2.456v0.786h-3.143v-1.571h3.143v0.786zM10.196 4.059v1.602l-0.565 0.234c-0.676 0.279-1.461 1.027-1.767 1.681-0.183 0.393-0.263 0.464-0.585 0.525-1.008 0.189-2.298 1.157-2.82 2.116-0.187 0.344-0.541 1.558-1.092 3.748-0.448 1.782-0.841 3.265-0.872 3.296s-0.168 0.007-0.303-0.055c-0.3-0.137-0.638-0.666-0.638-1-0-0.326 3.974-12.238 4.215-12.634 0.234-0.383 0.776-0.803 1.26-0.976 0.239-0.086 0.858-0.133 1.768-0.136l1.4-0.004v1.602zM15.696 3.242v0.786h1.571v-1.571h1.571v1.571h1.571v-1.571h1.571v1.571h1.571v-1.571h1.571v1.571h1.571v-1.571h1.571v1.571h1.571v-1.571h0.786v3.143h-15.714v-3.143h0.786v0.786zM29.838 7.452c0 0.397-0.309 0.743-0.985 1.103-1.142 0.608-1.634 1.78-1.229 2.926 0.241 0.682 0.611 1.069 1.377 1.437 0.808 0.389 1.006 0.571 1.093 1.011l0.063 0.313h-14.781l0.063-0.313c0.088-0.44 0.286-0.622 1.093-1.011 0.766-0.368 1.136-0.755 1.377-1.437 0.405-1.147-0.087-2.318-1.229-2.926-0.676-0.36-0.985-0.706-0.985-1.103v-0.281h14.143v0.281zM7.346 9.896c-0 0.095-0.221 1.807-0.49 3.806s-0.49 3.645-0.49 3.659c-0 0.013-0.505 0.025-1.12 0.025h-1.119l0.762-3.026c0.419-1.664 0.819-3.134 0.89-3.266 0.253-0.475 0.542-0.797 0.97-1.080 0.505-0.335 0.599-0.353 0.598-0.117zM30.56 16.034c0.030 0.122 0.591 2.63 1.247 5.574 1.292 5.803 1.309 5.93 0.878 6.789-0.293 0.584-0.641 0.939-1.225 1.249l-0.491 0.261h-16.402l-0.404-0.216c-0.633-0.339-1.009-0.701-1.279-1.234-0.468-0.925-0.461-0.985 0.845-6.849 0.656-2.944 1.217-5.452 1.247-5.574l0.055-0.221h15.475l0.055 0.221z"></path>
<path fill="#db3138" style="fill: var(--color2, #db3138)" d="M25.072 18.116c0.272-0.272 0.649-0.544 0.838-0.604 0.914-0.288 1.718-0.086 2.41 0.605 0.509 0.509 0.733 1.006 0.733 1.624 0 1.552-1.733 2.785-3.109 2.21-0.194-0.081-0.367-0.147-0.385-0.147s0.035 0.188 0.117 0.417c0.213 0.594 0.279 1.693 0.141 2.358-0.185 0.892-0.709 1.831-1.375 2.466-1.873 1.787-4.709 1.761-6.527-0.059-2.021-2.024-1.834-5.234 0.408-6.999 1.634-1.286 4.054-1.326 5.671-0.093l0.345 0.263v-0.369c0-0.665 0.213-1.151 0.733-1.673zM24.044 22.344c-0.311-0.632-0.902-1.22-1.523-1.514-0.641-0.304-1.688-0.37-2.308-0.145-2.685 0.976-2.897 4.579-0.344 5.834 0.407 0.2 0.634 0.241 1.326 0.239 0.707-0.003 0.911-0.043 1.336-0.263 0.74-0.383 1.048-0.681 1.419-1.371 0.304-0.564 0.333-0.693 0.334-1.454 0.001-0.689-0.041-0.92-0.241-1.326zM27.24 19.197c0.152 0.152 0.241 0.353 0.241 0.545s-0.089 0.393-0.241 0.545c-0.152 0.152-0.353 0.241-0.545 0.241s-0.393-0.089-0.545-0.241c-0.152-0.152-0.241-0.353-0.241-0.545s0.089-0.393 0.241-0.545c0.152-0.152 0.353-0.241 0.545-0.241s0.393 0.089 0.545 0.241z"></path>
</symbol>
<symbol id="icon-list" viewBox="0 0 26 32">
<path fill="#fff" style="fill: var(--color1, #fff)" d="M1.040 0.082c-0.317 0.1-0.857 0.659-0.954 0.988-0.114 0.386-0.114 29.472 0 29.858 0.105 0.354 0.639 0.889 0.994 0.994 0.203 0.060 2.553 0.078 10.032 0.078h9.767l4.938-4.938v-12.864c0-9.751-0.019-12.926-0.077-13.12-0.042-0.141-0.202-0.396-0.356-0.566-0.505-0.562 0.618-0.516-12.5-0.509-8.274 0.005-11.684 0.027-11.844 0.078zM24.625 1.188l0.158 0.158v24.976h-1.654c-1.11 0-1.741 0.026-1.919 0.078-0.354 0.105-0.889 0.639-0.994 0.994-0.053 0.178-0.078 0.81-0.078 1.92v1.654h-18.782l-0.317-0.317v-29.304l0.317-0.317h23.11l0.158 0.158zM9.589 2.152c-0.786 0.201-0.954 0.318-2.839 1.974-0.816 0.717-1.571 1.359-1.678 1.426s-0.295 0.123-0.419 0.123c-0.285 0.001-0.813 0.246-1.058 0.49-0.103 0.103-0.257 0.339-0.343 0.525-0.153 0.33-0.156 0.371-0.136 1.742 0.020 1.393 0.022 1.406 0.2 1.745 0.238 0.452 0.617 0.81 1.049 0.988 0.229 0.095 0.352 0.184 0.352 0.255 0 0.060 0.102 0.312 0.226 0.561 0.949 1.896 3.63 1.899 4.578 0.004 0.126-0.251 0.228-0.496 0.228-0.545 0-0.073 0.453-0.088 2.645-0.088s2.645 0.015 2.645 0.088c0 0.048 0.102 0.292 0.226 0.541 0.949 1.896 3.63 1.899 4.578 0.004 0.126-0.251 0.228-0.496 0.228-0.545 0-0.069 0.144-0.088 0.654-0.088 0.36 0 0.773-0.035 0.919-0.078 0.354-0.105 0.889-0.639 0.994-0.994 0.052-0.175 0.078-0.773 0.078-1.751 0-1.32-0.013-1.501-0.113-1.623-0.085-0.103-0.563-0.266-1.912-0.65-0.99-0.282-1.805-0.521-1.812-0.531s-0.446-0.628-0.975-1.372c-0.529-0.745-1.074-1.466-1.21-1.603s-0.441-0.341-0.677-0.453l-0.429-0.203-2.839-0.012c-2.128-0.009-2.92 0.008-3.162 0.070zM11.879 4.353v1.258h-2.627c-2.232 0-2.613-0.013-2.532-0.089 0.551-0.517 2.383-2.070 2.539-2.151 0.42-0.219 0.722-0.268 1.669-0.272l0.952-0.004v1.258zM15.589 3.248c0.396 0.187 0.433 0.228 1.288 1.427l0.689 0.968-1.86 0.020c-1.023 0.011-2.070 0.001-2.328-0.022l-0.468-0.041v-2.505l1.178 0.001c1.102 0.001 1.198 0.010 1.5 0.153zM19.468 6.977l0.911 0.261-0.104 0.202c-0.162 0.314-0.137 0.921 0.050 1.223 0.215 0.349 0.566 0.56 1 0.605l0.362 0.037v0.349c0 0.284-0.029 0.378-0.158 0.507-0.147 0.147-0.204 0.158-0.807 0.158-0.505 0-0.648-0.020-0.648-0.088 0-0.048-0.102-0.292-0.226-0.541-0.275-0.55-0.662-0.923-1.246-1.199-0.39-0.185-0.49-0.204-1.044-0.204s-0.654 0.020-1.044 0.204c-0.583 0.276-0.971 0.649-1.246 1.199-0.125 0.249-0.226 0.492-0.226 0.541 0 0.073-0.453 0.088-2.645 0.088s-2.645-0.015-2.645-0.088c0-0.048-0.102-0.292-0.226-0.541-0.275-0.55-0.662-0.923-1.246-1.199-0.39-0.185-0.49-0.204-1.044-0.204s-0.654 0.020-1.044 0.204c-0.237 0.112-0.56 0.323-0.717 0.468-0.283 0.261-0.691 0.927-0.691 1.128 0 0.138-0.077 0.131-0.273-0.023-0.244-0.192-0.372-0.521-0.372-0.958v-0.389l0.344-0.158c0.632-0.289 1.086-0.911 1.181-1.62l0.043-0.316 12.853 0.093 0.911 0.261zM4.628 6.912c-0.043 0.216-0.327 0.635-0.43 0.635-0.079 0-0.079-0.268 0-0.476 0.049-0.129 0.319-0.346 0.447-0.36 0.013-0.001 0.006 0.089-0.017 0.202zM7.75 7.74v0.516h1.549v-1.032h-1.549v0.516zM13.944 7.74v0.516h1.549v-1.032h-1.549v0.516zM21.686 7.998c0 0.24-0.013 0.258-0.181 0.258-0.202 0-0.336-0.103-0.336-0.258s0.134-0.258 0.336-0.258c0.168 0 0.181 0.018 0.181 0.258zM7.71 9.367c0.554 0.164 1.072 0.874 1.072 1.47 0 0.8-0.749 1.549-1.548 1.549s-1.549-0.749-1.549-1.549c0-0.406 0.148-0.733 0.482-1.068 0.453-0.454 0.94-0.581 1.543-0.403zM18.033 9.367c0.555 0.164 1.072 0.874 1.072 1.47 0 0.8-0.749 1.549-1.548 1.549s-1.549-0.749-1.549-1.549c0-0.406 0.148-0.733 0.482-1.068 0.453-0.454 0.94-0.581 1.543-0.403zM6.717 10.837v0.516h1.032v-1.032h-1.032v0.516zM17.041 10.837v0.516h1.032v-1.032h-1.032v0.516zM17.492 14.805l-0.675 0.678h-3.073l-0.317 0.317v3.496l0.317 0.317h3.496l0.317-0.317v-3.073l0.677-0.675c0.373-0.371 0.677-0.706 0.677-0.743 0-0.085-0.595-0.676-0.681-0.676-0.035 0-0.367 0.305-0.739 0.677zM8.266 16.515v0.516h4.129v-1.032h-4.129v0.516zM19.622 16.515v0.516h4.129v-1.032h-4.129v0.516zM15.474 16.824c-0.167 0.17-0.301 0.337-0.297 0.371s0.164 0.206 0.357 0.38l0.35 0.318 0.641-0.631v1.318h-2.065v-2.065h1.318l-0.304 0.309zM7.234 18.58v0.516h5.162v-1.032h-5.162v0.516zM18.589 18.58v0.516h5.162v-1.032h-5.162v0.516zM6.137 19.967l-0.675 0.677h-3.073l-0.317 0.317v3.496l0.317 0.317h3.496l0.317-0.317v-3.073l0.678-0.675c0.373-0.371 0.678-0.706 0.678-0.743 0-0.085-0.595-0.676-0.681-0.676-0.035 0-0.367 0.305-0.739 0.677zM17.492 19.967l-0.675 0.677h-3.073l-0.317 0.317v3.496l0.317 0.317h3.496l0.317-0.317v-3.073l0.677-0.675c0.373-0.371 0.677-0.706 0.677-0.743 0-0.085-0.595-0.676-0.681-0.676-0.035 0-0.367 0.305-0.739 0.677zM8.266 21.677v0.516h4.129v-1.032h-4.129v0.516zM19.622 21.677v0.516h4.129v-1.032h-4.129v0.516zM4.118 21.985c-0.167 0.17-0.301 0.337-0.297 0.371s0.164 0.206 0.357 0.38l0.35 0.318 0.641-0.631v1.318h-2.065v-2.065h1.318l-0.304 0.309zM15.474 21.985c-0.167 0.17-0.301 0.337-0.297 0.371s0.164 0.206 0.357 0.38l0.35 0.318 0.641-0.631v1.318h-2.065v-2.065h1.318l-0.304 0.309zM7.234 23.741v0.516h5.162v-1.032h-5.162v0.516zM18.589 23.741v0.516h5.162v-1.032h-5.162v0.516zM6.137 25.128l-0.675 0.677h-3.073l-0.317 0.317v3.496l0.317 0.317h3.496l0.317-0.317v-3.073l0.678-0.675c0.373-0.371 0.678-0.706 0.678-0.743 0-0.085-0.595-0.676-0.681-0.676-0.035 0-0.367 0.305-0.739 0.677zM8.266 26.838v0.516h4.129v-1.032h-4.129v0.516zM4.118 27.147c-0.167 0.17-0.301 0.337-0.297 0.371s0.164 0.206 0.357 0.38l0.35 0.318 0.641-0.631v1.318h-2.065v-2.065h1.318l-0.304 0.309zM24.009 27.371c0 0.009-0.639 0.655-1.419 1.435l-1.419 1.418v-1.277c0-1.714-0.119-1.593 1.578-1.593 0.694 0 1.261 0.008 1.261 0.017zM7.234 28.903v0.516h5.162v-1.032h-5.162v0.516z"></path>
<path fill="#db3138" style="fill: var(--color2, #db3138)" d="M6.137 14.805l-0.675 0.678h-3.073l-0.317 0.317v3.496l0.317 0.317h3.496l0.317-0.317v-3.073l0.678-0.675c0.373-0.371 0.677-0.706 0.677-0.743 0-0.085-0.595-0.676-0.681-0.676-0.035 0-0.367 0.305-0.739 0.678zM4.118 16.823c-0.167 0.17-0.301 0.337-0.297 0.371s0.164 0.206 0.357 0.38l0.35 0.318 0.641-0.631v1.318h-2.065v-2.065h1.318l-0.304 0.309z"></path>
<path fill="#db3138" style="fill: var(--color2, #db3138)" d="M6.137 19.969l-0.675 0.677h-3.073l-0.317 0.317v3.496l0.317 0.317h3.496l0.317-0.317v-3.073l0.678-0.675c0.373-0.371 0.677-0.706 0.677-0.743 0-0.085-0.595-0.676-0.681-0.676-0.035 0-0.367 0.305-0.739 0.677zM4.118 21.988c-0.167 0.17-0.301 0.337-0.297 0.371s0.164 0.206 0.357 0.38l0.35 0.318 0.641-0.631v1.318h-2.065v-2.065h1.318l-0.304 0.309z"></path>
<path fill="#db3138" style="fill: var(--color2, #db3138)" d="M6.137 25.131l-0.675 0.677h-3.073l-0.317 0.317v3.496l0.317 0.317h3.496l0.317-0.317v-3.073l0.678-0.675c0.373-0.371 0.678-0.706 0.678-0.743 0-0.085-0.595-0.676-0.681-0.676-0.035 0-0.367 0.305-0.739 0.677zM4.118 27.15c-0.167 0.17-0.301 0.337-0.297 0.371s0.164 0.206 0.357 0.38l0.35 0.318 0.641-0.631v1.318h-2.065v-2.065h1.318l-0.304 0.309z"></path>
<path fill="#db3138" style="fill: var(--color2, #db3138)" d="M17.479 19.969l-0.675 0.677h-3.073l-0.317 0.317v3.496l0.317 0.317h3.496l0.317-0.317v-3.073l0.677-0.675c0.373-0.371 0.677-0.706 0.677-0.743 0-0.085-0.595-0.676-0.681-0.676-0.035 0-0.367 0.305-0.739 0.677zM15.461 21.988c-0.167 0.17-0.301 0.337-0.297 0.371s0.164 0.206 0.357 0.38l0.35 0.318 0.641-0.631v1.318h-2.065v-2.065h1.318l-0.304 0.309z"></path>
<path fill="#db3138" style="fill: var(--color2, #db3138)" d="M17.479 14.808l-0.675 0.678h-3.073l-0.317 0.317v3.496l0.317 0.317h3.496l0.317-0.317v-3.073l0.677-0.675c0.373-0.371 0.677-0.706 0.677-0.743 0-0.085-0.595-0.676-0.681-0.676-0.035 0-0.367 0.305-0.739 0.678zM15.461 16.826c-0.167 0.17-0.301 0.337-0.297 0.371s0.164 0.206 0.357 0.38l0.35 0.318 0.641-0.631v1.318h-2.065v-2.065h1.318l-0.304 0.309z"></path>
</symbol>
<symbol id="icon-slider-right" viewBox="0 0 32 32">
<path fill="none" stroke="#db3138" style="stroke: var(--color2, #db3138)" stroke-linejoin="miter" stroke-linecap="butt" stroke-miterlimit="4" stroke-width="1.3521" d="M30.914 15.935l-14.979-14.979-14.979 14.979 14.979 14.979 14.979-14.979z"></path>
<path fill="#fff" style="fill: var(--color1, #fff)" d="M14.292 12.555l3.38 3.38-3.38 3.38 0.676 1.352 4.732-4.732-4.732-4.732-0.676 1.352z"></path>
</symbol>
<symbol id="icon-slider-left" viewBox="0 0 32 32">
<path fill="none" stroke="#db3138" style="stroke: var(--color2, #db3138)" stroke-linejoin="miter" stroke-linecap="butt" stroke-miterlimit="4" stroke-width="1.3521" d="M0.956 15.935l14.979-14.979 14.979 14.979-14.979 14.979-14.979-14.979z"></path>
<path fill="#fff" style="fill: var(--color1, #fff)" d="M17.577 12.555l-3.38 3.38 3.38 3.38-0.676 1.352-4.732-4.732 4.732-4.732 0.676 1.352z"></path>
</symbol>
<symbol id="icon-cup" viewBox="0 0 26 32">
<path fill="#fff" style="fill: var(--color1, #fff)" d="M4.964 0.495c-0.578 0.201-1.002 0.641-1.177 1.221-0.051 0.168-0.088 0.551-0.088 0.897v0.603l-1.158 0.020c-1.324 0.023-1.524 0.078-1.991 0.545-0.51 0.51-0.635 1.114-0.498 2.419 0.234 2.246 1.001 3.982 2.298 5.206 0.675 0.637 1.499 1.13 2.277 1.364 0.252 0.076 0.297 0.119 0.454 0.441 0.507 1.036 1.366 2.295 2.199 3.22 0.473 0.526 1.377 1.332 2.069 1.845 0.625 0.464 0.788 0.63 0.967 0.991 0.14 0.282 0.145 0.342 0.164 2.209l0.019 1.918-0.463 0.229c-0.736 0.364-1.192 0.97-1.342 1.786l-0.074 0.402-0.531 0.027c-0.639 0.032-0.995 0.174-1.364 0.543-0.518 0.518-0.522 0.542-0.543 3.006l-0.018 2.172 0.366 0.41 12.788 0.033 0.405-0.362v-2.212c0-2.133-0.005-2.223-0.133-2.5-0.073-0.158-0.249-0.404-0.392-0.546-0.369-0.369-0.726-0.511-1.361-0.543l-0.528-0.026-0.077-0.406c-0.157-0.826-0.646-1.454-1.419-1.819l-0.39-0.184 0.019-1.922c0.019-1.871 0.023-1.93 0.164-2.212 0.179-0.36 0.342-0.527 0.967-0.991 1.796-1.332 3.205-2.984 4.18-4.899 0.252-0.495 0.281-0.527 0.544-0.607 0.787-0.238 1.656-0.761 2.305-1.387 1.287-1.242 2.037-2.955 2.269-5.183 0.136-1.305 0.012-1.909-0.498-2.419-0.467-0.467-0.668-0.522-1.985-0.545l-1.151-0.020-0.024-0.721c-0.019-0.565-0.052-0.783-0.154-1.008-0.166-0.365-0.568-0.768-0.936-0.939l-0.287-0.133-7.78-0.014c-7.254-0.013-7.801-0.007-8.089 0.093zM20.786 1.821l0.171 0.171-0.002 3.256c-0.002 3.574-0.013 3.72-0.405 5.194-0.323 1.217-0.952 2.622-1.619 3.618-0.772 1.153-1.929 2.353-3.133 3.247-0.75 0.558-1.006 0.829-1.26 1.333-0.321 0.639-0.343 0.855-0.343 3.273v2.24l0.17 0.187c0.131 0.144 0.254 0.202 0.54 0.252 0.599 0.106 1.020 0.483 1.114 0.998l0.042 0.232h-6.202l0.042-0.232c0.094-0.514 0.541-0.92 1.083-0.984 0.235-0.028 0.383-0.087 0.519-0.209l0.191-0.17 0.018-2.264c0.019-2.457-0.002-2.669-0.329-3.32-0.254-0.507-0.51-0.777-1.261-1.336-1.204-0.895-2.364-2.098-3.132-3.247-0.655-0.981-1.304-2.429-1.618-3.612-0.393-1.481-0.404-1.625-0.406-5.196-0.002-3.165 0.002-3.254 0.122-3.388 0.068-0.076 0.179-0.16 0.247-0.188s3.534-0.046 7.701-0.039l7.578 0.012 0.171 0.171zM3.699 6.116c0 2.212 0.137 3.501 0.501 4.725 0.069 0.232 0.114 0.435 0.099 0.45-0.059 0.059-0.962-0.606-1.29-0.95-1.083-1.136-1.715-2.894-1.74-4.84-0.007-0.576 0.007-0.673 0.115-0.795 0.195-0.218 0.311-0.239 1.343-0.243l0.973-0.004v1.656zM24.491 4.662c0.167 0.168 0.171 0.188 0.163 0.834-0.024 1.951-0.655 3.708-1.74 4.845-0.328 0.344-1.231 1.009-1.29 0.95-0.015-0.015 0.029-0.217 0.099-0.45 0.364-1.225 0.501-2.513 0.501-4.729v-1.66l2.097 0.039 0.171 0.172zM18.316 27.261l0.171 0.171 0.037 3.332h-11.126l0.018-1.661c0.017-1.56 0.026-1.669 0.142-1.798 0.068-0.075 0.179-0.16 0.247-0.188s2.422-0.046 5.232-0.039l5.108 0.012 0.171 0.171zM10.268 28.354c-0.194 0.079-0.394 0.365-0.394 0.564 0 0.107 0.070 0.255 0.18 0.378l0.18 0.202 2.903 0.037 0.204-0.182c0.169-0.151 0.204-0.226 0.204-0.442s-0.035-0.291-0.2-0.439l-0.2-0.179-1.373 0.004c-0.755 0.002-1.432 0.028-1.503 0.057zM15.208 28.354c-0.194 0.079-0.394 0.365-0.394 0.564 0 0.247 0.284 0.544 0.563 0.588 0.188 0.030 0.256 0.006 0.431-0.15 0.174-0.155 0.208-0.228 0.208-0.445 0-0.215-0.035-0.291-0.2-0.439-0.203-0.181-0.37-0.214-0.607-0.118z"></path>
<path fill="#db3138" style="fill: var(--color2, #db3138)" d="M12.843 4.134c-0.325 0.091-0.395 0.192-0.999 1.435-0.338 0.697-0.625 1.276-0.636 1.288s-0.586 0.101-1.277 0.2c-0.691 0.098-1.357 0.207-1.481 0.243-0.274 0.078-0.424 0.29-0.424 0.601 0 0.219 0.061 0.294 1.045 1.273l1.045 1.040-0.238 1.396c-0.212 1.245-0.229 1.418-0.155 1.595 0.046 0.109 0.139 0.229 0.208 0.265 0.297 0.159 0.539 0.081 1.784-0.578l1.218-0.644 1.243 0.644c1.37 0.71 1.576 0.766 1.847 0.495 0.082-0.082 0.165-0.214 0.184-0.293s-0.071-0.761-0.201-1.516l-0.237-1.372 1.032-1.030c0.661-0.66 1.043-1.088 1.062-1.191 0.048-0.25-0.109-0.548-0.341-0.65-0.112-0.049-0.718-0.161-1.346-0.25s-1.22-0.176-1.315-0.195c-0.154-0.031-0.241-0.172-0.816-1.32-0.354-0.707-0.673-1.305-0.71-1.327-0.119-0.074-0.4-0.136-0.494-0.11zM13.383 7.039c0.221 0.43 0.471 0.829 0.556 0.89 0.126 0.090 1.531 0.352 1.933 0.36 0.041 0.001-0.253 0.317-0.652 0.702-0.416 0.402-0.618 0.579-0.691 0.798-0.075 0.224-0.015 0.493 0.089 1.091 0.067 0.391 0.123 0.758 0.123 0.817 0 0.085-0.169 0.018-0.823-0.324-0.453-0.237-0.901-0.431-0.996-0.431s-0.544 0.196-0.998 0.436c-0.454 0.24-0.826 0.407-0.826 0.372s0.069-0.456 0.153-0.936c0.134-0.762 0.142-0.896 0.070-1.067-0.046-0.107-0.366-0.469-0.712-0.804s-0.619-0.619-0.606-0.632c0.013-0.013 0.424-0.081 0.914-0.152s0.951-0.167 1.024-0.214c0.073-0.047 0.317-0.465 0.542-0.93s0.429-0.825 0.454-0.801c0.025 0.024 0.225 0.395 0.446 0.824z"></path>
<path fill="#db3138" style="fill: var(--color2, #db3138)" d="M16.178 28.973c0 0.375-0.304 0.679-0.679 0.679s-0.679-0.304-0.679-0.679c0-0.375 0.304-0.679 0.679-0.679s0.679 0.304 0.679 0.679z"></path>
</symbol>
<symbol id="icon-6" viewBox="0 0 29 32">
<path fill="#db3138" style="fill: var(--color2, #db3138)" d="M6.679 31.158h-1.839l1.233-4.487h-1.96l-1.253 4.487h-1.839l1.233-4.507h-2.021l0.525-1.799h1.981l0.687-2.425h-2.001l0.525-1.859h2.001l1.011-3.557h1.839l-1.011 3.557h1.981l1.011-3.557h1.88l-1.051 3.557h1.981l-0.525 1.859h-1.981l-0.687 2.425h2.021l-0.465 1.799h-2.041l-1.233 4.507zM6.558 24.852l0.687-2.425h-1.981l-0.687 2.425h1.981zM28.034 19.51v4.554c0 1.868-0.263 3.328-0.788 4.379-1.051 2.102-3.036 3.153-5.955 3.153-2.948 0-4.992-1.095-6.131-3.284-0.35-0.642-0.613-1.401-0.788-2.277-0.146-0.876-0.234-1.562-0.263-2.058 0-0.525 0-1.328 0-2.408v-12.699c0-2.949 0.525-5.094 1.576-6.437 1.226-1.576 2.992-2.365 5.299-2.365s4.087 0.744 5.342 2.233c0.905 1.080 1.357 2.627 1.357 4.642v2.54h-4.817v-2.233c0-0.847-0.131-1.533-0.394-2.058-0.321-0.555-0.832-0.832-1.533-0.832-0.584 0-1.036 0.248-1.357 0.744-0.321 0.525-0.482 1.284-0.482 2.277v6.831c0.35-0.584 0.832-1.066 1.445-1.445 0.759-0.467 1.635-0.701 2.627-0.701 1.43 0 2.569 0.496 3.416 1.489 0.963 1.109 1.445 3.094 1.445 5.955zM19.101 19.116v5.474c0 0.847 0.131 1.489 0.394 1.927 0.38 0.525 0.905 0.788 1.576 0.788 0.759 0 1.285-0.234 1.576-0.701 0.263-0.38 0.394-1.036 0.394-1.971v-5.693c0-0.963-0.131-1.649-0.394-2.058-0.379-0.467-0.905-0.701-1.576-0.701-0.701 0-1.211 0.234-1.533 0.701-0.292 0.409-0.438 1.153-0.438 2.233z"></path>
</symbol>
<symbol id="icon-4" viewBox="0 0 30 32">
<path fill="#db3138" style="fill: var(--color2, #db3138)" d="M6.816 32h-1.889l1.266-4.608h-2.013l-1.287 4.608h-1.889l1.266-4.629h-2.076l0.54-1.847h2.034l0.706-2.491h-2.055l0.54-1.91h2.055l1.038-3.653h1.889l-1.038 3.653h2.034l1.038-3.653h1.93l-1.079 3.653h2.034l-0.54 1.91h-2.034l-0.706 2.491h2.076l-0.477 1.847h-2.096l-1.266 4.629zM6.692 25.524l0.706-2.491h-2.034l-0.706 2.491h2.034zM27.174 32h-5.127v-5.757h-8.59v-4.183l8.59-21.542h5.127v21.497h2.339v4.227h-2.339v5.757zM22.047 22.016v-10.704l-3.868 10.704h3.868z"></path>
</symbol>
<symbol id="icon-3" viewBox="0 0 29 32">
<path fill="#db3138" style="fill: var(--color2, #db3138)" d="M6.808 31.158h-1.839l1.233-4.487h-1.96l-1.253 4.487h-1.839l1.233-4.507h-2.021l0.525-1.799h1.981l0.687-2.425h-2.001l0.525-1.859h2.001l1.011-3.557h1.839l-1.011 3.557h1.981l1.011-3.557h1.88l-1.051 3.557h1.981l-0.525 1.859h-1.981l-0.687 2.425h2.021l-0.465 1.799h-2.041l-1.233 4.507zM6.686 24.852l0.687-2.425h-1.981l-0.687 2.425h1.981zM13.712 21.086h4.992v2.54c0 1.372 0.102 2.262 0.307 2.671 0.321 0.671 0.934 1.007 1.839 1.007 0.934 0 1.547-0.336 1.839-1.007 0.146-0.292 0.219-1.066 0.219-2.321v-2.846c0-1.722-0.146-2.803-0.438-3.24-0.525-0.759-1.576-1.139-3.153-1.139h-1.533v-4.291h2.715c0.292 0 0.525-0.015 0.701-0.044s0.394-0.102 0.657-0.219c0.292-0.146 0.496-0.394 0.613-0.744 0.146-0.38 0.219-0.861 0.219-1.445v-3.153c0-0.847-0.117-1.445-0.35-1.795-0.35-0.467-0.861-0.701-1.533-0.701-0.701 0-1.212 0.219-1.533 0.657-0.234 0.35-0.35 0.978-0.35 1.883v2.146h-4.992v-2.277c0-1.664 0.365-3.021 1.095-4.072 1.168-1.752 3.109-2.627 5.824-2.627 2.686 0 4.612 0.803 5.78 2.408 0.701 0.993 1.051 2.306 1.051 3.941v2.408c0 1.255-0.073 2.219-0.219 2.89-0.146 0.642-0.482 1.241-1.007 1.795-0.642 0.642-1.387 1.051-2.233 1.226 1.547 0.38 2.627 1.387 3.24 3.021 0.292 0.847 0.438 2.014 0.438 3.503v2.934c0 1.927-0.307 3.445-0.92 4.554-1.109 1.898-3.168 2.846-6.174 2.846-2.832 0-4.817-0.905-5.955-2.715-0.759-1.168-1.139-2.89-1.139-5.167v-2.627z"></path>
</symbol>
<symbol id="icon-2" viewBox="0 0 29 32">
<path fill="#db3138" style="fill: var(--color2, #db3138)" d="M6.757 32h-1.889l1.266-4.608h-2.013l-1.287 4.608h-1.889l1.266-4.629h-2.076l0.54-1.847h2.034l0.706-2.491h-2.055l0.54-1.91h2.055l1.038-3.653h1.889l-1.038 3.653h2.034l1.038-3.653h1.93l-1.079 3.653h2.034l-0.54 1.91h-2.034l-0.706 2.491h2.076l-0.477 1.847h-2.096l-1.266 4.629zM6.632 25.524l0.706-2.491h-2.034l-0.706 2.491h2.034zM28.239 32h-14.391c-0.33-2.968 0.315-5.861 1.934-8.68 0.899-1.529 1.949-2.998 3.148-4.407 1.109-1.259 1.919-2.219 2.429-2.878 0.75-0.989 1.214-1.799 1.394-2.429 0.21-0.66 0.315-1.499 0.315-2.518v-2.833c0-1.049-0.090-1.814-0.27-2.294-0.27-0.69-0.824-1.034-1.664-1.034-0.809 0-1.349 0.345-1.619 1.034-0.18 0.36-0.27 1.229-0.27 2.608v4.137h-4.992v-3.733c0-2.129 0.24-3.748 0.72-4.857 0.51-1.199 1.319-2.099 2.429-2.698s2.354-0.899 3.733-0.899c2.728 0 4.677 0.989 5.846 2.968 0.809 1.379 1.214 3.163 1.214 5.352v1.574c0 2.159-0.165 3.763-0.495 4.812-0.36 1.169-1.289 2.653-2.788 4.452-0.6 0.72-1.304 1.514-2.114 2.384-0.779 0.869-1.289 1.454-1.529 1.754-1.049 1.229-1.739 2.488-2.069 3.778h9.040v4.407z"></path>
</symbol>
<symbol id="icon-1" viewBox="0 0 23 32">
<path fill="#db3138" style="fill: var(--color2, #db3138)" d="M6.907 32h-1.889l1.266-4.608h-2.013l-1.287 4.608h-1.889l1.266-4.629h-2.076l0.54-1.847h2.034l0.706-2.491h-2.055l0.54-1.91h2.055l1.038-3.653h1.889l-1.038 3.653h2.034l1.038-3.653h1.93l-1.079 3.653h2.034l-0.54 1.91h-2.034l-0.706 2.491h2.076l-0.477 1.847h-2.096l-1.266 4.629zM6.783 25.524l0.706-2.491h-2.034l-0.706 2.491h2.034zM22.453 32h-5.127v-24.33c-1.559 0.72-2.818 1.124-3.778 1.214v-3.868c1.109-0.27 1.979-0.675 2.608-1.214 0.959-0.78 1.619-1.874 1.979-3.283h4.317v31.481z"></path>
</symbol>
<symbol id="icon-blocks" viewBox="0 0 294 32">
<path fill="#db3138" style="fill: var(--color2, #db3138)" d="M0 16l14.142-14.142 14.142 14.142-14.142 14.142-14.142-14.142z"></path>
<path fill="#db3138" style="fill: var(--color2, #db3138)" d="M88.142 16l14.142-14.142 14.142 14.142-14.142 14.142-14.142-14.142z"></path>
<path fill="#db3138" style="fill: var(--color2, #db3138)" d="M176.284 16l14.142-14.142 14.142 14.142-14.142 14.142-14.142-14.142z"></path>
<path fill="#db3138" style="fill: var(--color2, #db3138)" d="M264.426 16l14.142-14.142 14.142 14.142-14.142 14.142-14.142-14.142z"></path>
</symbol>
<symbol id="icon-burger" viewBox="0 0 64 32">
<path fill="#db3138" style="fill: var(--color2, #db3138)" d="M12.8 0h51.2v3.84h-51.2v-3.84z"></path>
<path fill="#db3138" style="fill: var(--color2, #db3138)" d="M0 14.080h51.2v3.84h-51.2v-3.84z"></path>
<path fill="#db3138" style="fill: var(--color2, #db3138)" d="M12.8 28.16h51.2v3.84h-51.2v-3.84z"></path>
</symbol>
</defs>
</svg>
